<?xml version="1.0" encoding="utf-8"?>
<!-- Generator: Adobe Illustrator 27.5.0, SVG Export Plug-In . SVG Version: 6.00 Build 0)  -->
<svg version="1.1" id="Layer_1" xmlns="http://www.w3.org/2000/svg" xmlns:xlink="http://www.w3.org/1999/xlink" x="0px" y="0px"
	 viewBox="0 0 9000 4000" style="enable-background:new 0 0 9000 4000;" xml:space="preserve">
<g>
	<defs>
		<rect id="SVGID_1_" width="9000" height="4000"/>
	</defs>
	<clipPath id="SVGID_00000104672726512717241700000001443432116958682047_">
		<use xlink:href="#SVGID_1_"  style="overflow:visible;"/>
	</clipPath>
	
		<rect x="22.77" y="22.627" style="clip-path:url(#SVGID_00000104672726512717241700000001443432116958682047_);fill-rule:evenodd;clip-rule:evenodd;fill:#F2F2F2;" width="8954.46" height="3954.746"/>
	<defs>
		<filter id="Adobe_OpacityMaskFilter" filterUnits="userSpaceOnUse" x="22.77" y="22.627" width="8861.209" height="3954.746">
			<feColorMatrix  type="matrix" values="1 0 0 0 0  0 1 0 0 0  0 0 1 0 0  0 0 0 1 0"/>
		</filter>
	</defs>
	
		<mask maskUnits="userSpaceOnUse" x="22.77" y="22.627" width="8861.209" height="3954.746" id="SVGID_00000069369309764976816750000003317274281445248418_">
		<g style="filter:url(#Adobe_OpacityMaskFilter);">
			
				<linearGradient id="SVGID_00000109012845778310964650000002093111576288836784_" gradientUnits="userSpaceOnUse" x1="4453.208" y1="7966.0679" x2="4453.4346" y2="-138.9395">
				<stop  offset="0" style="stop-color:#FFFFFF"/>
				<stop  offset="1" style="stop-color:#000000"/>
			</linearGradient>
			
				<rect x="22.77" y="22.627" style="clip-path:url(#SVGID_00000104672726512717241700000001443432116958682047_);fill:url(#SVGID_00000109012845778310964650000002093111576288836784_);" width="8861.209" height="3954.746"/>
		</g>
	</mask>
	
		<path style="clip-path:url(#SVGID_00000104672726512717241700000001443432116958682047_);mask:url(#SVGID_00000069369309764976816750000003317274281445248418_);fill:#332C2B;" d="
		M663.978,524.161l-74.885-74.416l-74.887,74.416l-4.725,4.695h-6.685H396.883v105.247v6.643l-4.725,4.695l-74.887,74.416
		l74.887,74.414l4.725,4.695v6.645V910.86h105.914h6.685l4.725,4.695l74.887,74.414l74.885-74.414l4.725-4.695h6.688h105.914
		V805.612v-6.645l4.725-4.695l74.884-74.414l-74.884-74.416l-4.725-4.695v-6.643V528.856H675.391h-6.688L663.978,524.161z
		 M600.504,415.725l81.574,81.061h115.361h16.137v16.034v114.638l81.572,81.059l11.413,11.341l-11.413,11.338l-81.572,81.061
		v114.635v16.036h-16.137H682.078l-81.574,81.059l-11.41,11.341l-11.412-11.341l-81.572-81.059H380.746h-16.135v-16.036V812.258
		l-81.574-81.061l-11.41-11.338l11.41-11.341l81.574-81.059V512.82v-16.034h16.135h115.363l81.572-81.061l11.412-11.338
		L600.504,415.725z M392.609,1299.181l-75.401,73.934l74.434,74.959l4.641,4.677l-0.039,6.598l-0.704,105.356l105.932,0.699
		l6.719,0.039l4.686,4.722l74.402,74.927l75.436-73.966l4.704-4.618l6.642,0.045l106.023,0.699l0.704-105.266l0.039-6.684l4.75-4.65
		l75.404-73.934l-74.436-74.961l-4.645-4.682l0.043-6.593l0.703-105.356l-105.932-0.699l-6.726-0.045l-4.679-4.713l-74.402-74.93
		l-75.433,73.968l-4.711,4.611l-6.635-0.038l-106.023-0.699l-0.703,105.266l-0.046,6.677L392.609,1299.181z M283.173,1361.561
		l82.128-80.527l0.767-114.597l0.105-16.015l16.033,0.109l115.413,0.763l82.16-80.559l11.433-11.219l11.321,11.404l81.037,81.611
		l115.322,0.765l16.11,0.102l-0.103,15.932l-0.767,114.69l81.069,81.643l11.283,11.359l-11.469,11.25l-82.128,80.528l-0.77,114.599
		l-0.109,16.009l-16.026-0.104l-115.416-0.763l-82.16,80.559l-11.437,11.212l-11.315-11.397l-81.037-81.611l-115.324-0.763
		l-16.117-0.109l0.112-15.927l0.767-114.688l-81.069-81.643l-11.289-11.365L283.173,1361.561z M663.978,1813.965l-74.885-74.414
		l-74.887,74.414l-4.725,4.695h-6.685H396.883v105.247v6.646l-4.725,4.695l-74.887,74.414l74.887,74.416l4.725,4.695v6.644v105.248
		h105.914h6.685l4.725,4.695l74.887,74.416l74.885-74.416l4.725-4.695h6.688h105.914v-105.248v-6.644l4.725-4.695l74.884-74.416
		l-74.884-74.414l-4.725-4.695v-6.646V1818.66H675.391h-6.688L663.978,1813.965z M600.504,1705.531l81.574,81.059h115.361h16.137
		v16.036v114.635l81.572,81.062l11.413,11.338l-11.413,11.341l-81.572,81.059v114.638v16.033h-16.137H682.078l-81.574,81.062
		l-11.41,11.338l-11.412-11.338l-81.572-81.062H380.746h-16.135v-16.033v-114.638l-81.574-81.059l-11.41-11.341l11.41-11.338
		l81.574-81.062v-114.635v-16.036h16.135h115.363l81.572-81.059l11.412-11.341L600.504,1705.531z M392.609,2588.985l-75.401,73.934
		l74.434,74.961l4.641,4.675l-0.039,6.601l-0.704,105.356l105.932,0.699l6.719,0.039l4.686,4.72l74.402,74.927l75.436-73.966
		l4.704-4.618l6.642,0.045l106.023,0.699l0.704-105.266l0.039-6.684l4.75-4.65l75.404-73.934l-74.436-74.959l-4.645-4.684
		l0.043-6.594l0.703-105.356l-105.932-0.699l-6.726-0.043l-4.679-4.716l-74.402-74.927l-75.433,73.966l-4.711,4.611l-6.635-0.038
		l-106.023-0.699l-0.703,105.266l-0.046,6.677L392.609,2588.985z M283.173,2651.368l82.128-80.528l0.767-114.599l0.105-16.016
		l16.033,0.109l115.413,0.765l82.16-80.559l11.433-11.219l11.321,11.404l81.037,81.611l115.322,0.762l16.11,0.102l-0.103,15.934
		l-0.767,114.688l81.069,81.643l11.283,11.359l-11.469,11.25l-82.128,80.528l-0.77,114.599l-0.109,16.009l-16.026-0.102
		l-115.416-0.762l-82.16,80.559l-11.437,11.212l-11.315-11.399l-81.037-81.611l-115.324-0.763l-16.117-0.108l0.112-15.927
		l0.767-114.688l-81.069-81.643l-11.289-11.366L283.173,2651.368z M663.978,3103.771l-74.885-74.416l-74.887,74.416l-4.725,4.695
		h-6.685H396.883v105.245v6.646l-4.725,4.695l-74.887,74.416l74.887,74.414l4.725,4.695v6.646v105.248h105.914h6.685l4.725,4.695
		l74.887,74.414l74.885-74.414l4.725-4.695h6.688h105.914v-105.248v-6.646l4.725-4.695l74.884-74.414l-74.884-74.416l-4.725-4.695
		v-6.646v-105.245H675.391h-6.688L663.978,3103.771z M600.504,2995.335l81.574,81.059h115.361h16.137v16.036v114.638l81.572,81.059
		l11.413,11.341l-11.413,11.338l-81.572,81.062v114.635v16.036h-16.137H682.078l-81.574,81.059l-11.41,11.341l-11.412-11.341
		l-81.572-81.059H380.746h-16.135v-16.036v-114.635l-81.574-81.062l-11.41-11.338l11.41-11.341l81.574-81.059V3092.43v-16.036
		h16.135h115.363l81.572-81.059l11.412-11.338L600.504,2995.335z M887.19,329.226l-75.401,73.934l74.434,74.961l4.641,4.681
		l-0.039,6.594l-0.704,105.356l105.932,0.699l6.72,0.038l4.686,4.72l74.402,74.93l75.436-73.966l4.704-4.618l6.642,0.043
		l106.023,0.699l0.704-105.266l0.039-6.677l4.75-4.657l75.401-73.934l-74.434-74.959l-4.647-4.677l0.046-6.598l0.703-105.356
		l-105.932-0.699l-6.726-0.038l-4.679-4.722l-74.402-74.927l-75.433,73.965l-4.714,4.618l-6.635-0.045l-106.023-0.699
		l-0.703,105.268l-0.043,6.682L887.19,329.226z M777.754,391.609l82.128-80.527l0.767-114.597l0.102-16.011l16.035,0.104
		L992.2,181.34l82.159-80.559l11.431-11.212l11.321,11.397l81.037,81.611l115.324,0.763l16.11,0.111l-0.102,15.925l-0.77,114.688
		l81.071,81.645l11.283,11.364l-11.472,11.245l-82.128,80.527l-0.767,114.597l-0.109,16.008l-16.028-0.102l-115.413-0.763
		l-82.16,80.559l-11.438,11.212l-11.315-11.397l-81.037-81.611l-115.324-0.765l-16.117-0.109l0.109-15.925l0.77-114.69
		l-81.071-81.643l-11.287-11.359L777.754,391.609z M1158.559,844.013l-74.885-74.414l-74.887,74.414l-4.725,4.695h-6.688H891.464
		v105.248v6.643l-4.725,4.695l-74.887,74.416l74.887,74.414l4.725,4.695v6.645v105.248h105.911h6.688l4.725,4.695l74.887,74.414
		l74.885-74.414l4.725-4.695h6.688h105.911v-105.248v-6.645l4.725-4.695l74.887-74.414l-74.887-74.416l-4.725-4.695v-6.643V848.707
		h-105.911h-6.688L1158.559,844.013z M1095.085,735.579l81.572,81.059h115.363h16.137v16.034V947.31l81.572,81.059l11.412,11.34
		l-11.412,11.341l-81.572,81.059v114.635v16.036h-16.137h-115.363l-81.572,81.059l-11.41,11.341l-11.412-11.341l-81.572-81.059
		H875.327H859.19v-16.036v-114.635l-81.572-81.059l-11.412-11.341l11.412-11.34l81.572-81.059V832.672v-16.034h16.137H990.69
		l81.572-81.059l11.412-11.341L1095.085,735.579z M887.19,1619.033l-75.401,73.934l74.434,74.959l4.641,4.677l-0.039,6.6
		l-0.704,105.354l105.932,0.699l6.72,0.039l4.686,4.722l74.402,74.927l75.436-73.966l4.704-4.618l6.642,0.045l106.023,0.699
		l0.704-105.266l0.039-6.684l4.75-4.65l75.401-73.934l-74.434-74.961l-4.647-4.682l0.046-6.594l0.703-105.356l-105.932-0.699
		l-6.726-0.045l-4.679-4.713l-74.402-74.927l-75.433,73.966l-4.714,4.611l-6.635-0.038l-106.023-0.699l-0.703,105.266l-0.043,6.677
		L887.19,1619.033z M777.754,1681.416l82.128-80.528l0.767-114.599l0.102-16.016l16.035,0.109l115.413,0.762l82.159-80.559
		l11.431-11.218l11.321,11.404l81.037,81.611l115.324,0.765l16.11,0.102l-0.102,15.932l-0.77,114.69l81.071,81.643l11.283,11.359
		l-11.472,11.25l-82.128,80.527l-0.767,114.599l-0.109,16.009l-16.028-0.102l-115.413-0.765l-82.16,80.559l-11.438,11.212
		l-11.315-11.397l-81.037-81.611l-115.324-0.762l-16.117-0.109l0.109-15.927l0.77-114.688l-81.071-81.643l-11.287-11.366
		L777.754,1681.416z M1158.559,2133.816l-74.885-74.413l-74.887,74.413l-4.725,4.695h-6.688H891.464v105.248v6.646l-4.725,4.695
		l-74.887,74.414l74.887,74.416l4.725,4.695v6.646v105.245h105.911h6.688l4.725,4.695l74.887,74.416l74.885-74.416l4.725-4.695
		h6.688h105.911V2415.27v-6.646l4.725-4.695l74.887-74.416l-74.887-74.414l-4.725-4.695v-6.646v-105.248h-105.911h-6.688
		L1158.559,2133.816z M1095.085,2025.383l81.572,81.059h115.363h16.137v16.036v114.635l81.572,81.062l11.412,11.339l-11.412,11.341
		l-81.572,81.059v114.638v16.033h-16.137h-115.363l-81.572,81.062l-11.41,11.338l-11.412-11.338l-81.572-81.062H875.327H859.19
		v-16.033v-114.638l-81.572-81.059l-11.412-11.341l11.412-11.339l81.572-81.062v-114.635v-16.036h16.137H990.69l81.572-81.059
		l11.412-11.341L1095.085,2025.383z M887.19,2908.837l-75.401,73.934l74.434,74.961l4.641,4.675l-0.039,6.6l-0.704,105.356
		l105.932,0.699l6.72,0.039l4.686,4.72l74.402,74.927l75.436-73.966l4.704-4.618l6.642,0.045l106.023,0.699l0.704-105.266
		l0.039-6.684l4.75-4.65l75.401-73.934l-74.434-74.959l-4.647-4.684l0.046-6.594l0.703-105.354l-105.932-0.699l-6.726-0.045
		l-4.679-4.716l-74.402-74.927l-75.433,73.966l-4.714,4.612l-6.635-0.039l-106.023-0.699l-0.703,105.266l-0.043,6.677
		L887.19,2908.837z M777.754,2971.219l82.128-80.528l0.767-114.599l0.102-16.015l16.035,0.108l115.413,0.765l82.159-80.559
		l11.431-11.219l11.321,11.404l81.037,81.611l115.324,0.762l16.11,0.104l-0.102,15.932l-0.77,114.688l81.071,81.643l11.283,11.359
		l-11.472,11.25l-82.128,80.527l-0.767,114.599l-0.109,16.009l-16.028-0.102l-115.413-0.762l-82.16,80.559l-11.438,11.212
		l-11.315-11.397l-81.037-81.611l-115.324-0.765l-16.117-0.109l0.109-15.925l0.77-114.69l-81.071-81.643l-11.287-11.365
		L777.754,2971.219z M1158.559,3423.623l-74.885-74.416l-74.887,74.416l-4.725,4.695h-6.688H891.464v105.248v6.643l-4.725,4.695
		l-74.887,74.416l74.887,74.414l4.725,4.695v6.646v105.248h105.911h6.688l4.725,4.695l74.887,74.414l74.885-74.414l4.725-4.695
		h6.688h105.911v-105.248v-6.646l4.725-4.695l74.887-74.414l-74.887-74.416l-4.725-4.695v-6.643v-105.248h-105.911h-6.688
		L1158.559,3423.623z M1095.085,3315.187l81.572,81.062h115.363h16.137v16.033v114.638l81.572,81.059l11.412,11.341l-11.412,11.338
		l-81.572,81.062v114.635v16.036h-16.137h-115.363l-81.572,81.059l-11.41,11.341l-11.412-11.341l-81.572-81.059H875.327H859.19
		v-16.036V3711.72l-81.572-81.062l-11.412-11.338l11.412-11.341l81.572-81.059v-114.638v-16.033h16.137H990.69l81.572-81.062
		l11.412-11.338L1095.085,3315.187z M1658.924,524.161l-74.887-74.416l-74.885,74.416l-4.725,4.695h-6.688h-105.913v105.247v6.643
		l-4.725,4.695l-74.885,74.416l74.885,74.414l4.725,4.695v6.645V910.86h105.913h6.688l4.725,4.695l74.885,74.414l74.887-74.414
		l4.725-4.695h6.685h105.913V805.612v-6.645l4.725-4.695l74.887-74.414l-74.887-74.416l-4.725-4.695v-6.643V528.856h-105.913h-6.685
		L1658.924,524.161z M1595.449,415.725l81.572,81.061h115.363h16.135v16.034v114.638l81.572,81.059l11.412,11.341l-11.412,11.338
		l-81.572,81.061v114.635v16.036h-16.135h-115.363l-81.572,81.059l-11.412,11.341l-11.412-11.341l-81.572-81.059h-115.361h-16.137
		v-16.036V812.258l-81.572-81.061l-11.412-11.338l11.412-11.341l81.572-81.059V512.82v-16.034h16.137h115.361l81.572-81.061
		l11.412-11.338L1595.449,415.725z M1387.555,1299.181l-75.404,73.934l74.434,74.959l4.643,4.677l-0.039,6.598l-0.704,105.356
		l105.932,0.699l6.719,0.039l4.686,4.722l74.402,74.927l75.433-73.966l4.706-4.618l6.64,0.045l106.023,0.699l0.704-105.266
		l0.039-6.684l4.752-4.65l75.401-73.934l-74.434-74.961l-4.647-4.682l0.046-6.593l0.704-105.356l-105.934-0.699l-6.724-0.045
		l-4.679-4.713l-74.402-74.93l-75.436,73.968l-4.711,4.611l-6.635-0.038l-106.023-0.699l-0.703,105.266l-0.046,6.677
		L1387.555,1299.181z M1278.117,1361.561l82.128-80.527l0.77-114.597l0.103-16.015l16.032,0.109l115.416,0.763l82.16-80.559
		l11.431-11.219l11.321,11.404l81.037,81.611l115.322,0.765l16.112,0.102l-0.105,15.932l-0.767,114.69l81.069,81.643l11.283,11.359
		l-11.469,11.25l-82.128,80.528l-0.767,114.599l-0.112,16.009l-16.026-0.104l-115.413-0.763l-82.162,80.559l-11.435,11.212
		l-11.317-11.397l-81.037-81.611l-115.322-0.763l-16.117-0.109l0.109-15.927l0.767-114.688l-81.069-81.643l-11.29-11.365
		L1278.117,1361.561z M1658.924,1813.965l-74.887-74.414l-74.885,74.414l-4.725,4.695h-6.688h-105.913v105.247v6.646l-4.725,4.695
		l-74.885,74.414l74.885,74.416l4.725,4.695v6.644v105.248h105.913h6.688l4.725,4.695l74.885,74.416l74.887-74.416l4.725-4.695
		h6.685h105.913v-105.248v-6.644l4.725-4.695l74.887-74.416l-74.887-74.414l-4.725-4.695v-6.646V1818.66h-105.913h-6.685
		L1658.924,1813.965z M1595.449,1705.531l81.572,81.059h115.363h16.135v16.036v114.635l81.572,81.062l11.412,11.338l-11.412,11.341
		l-81.572,81.059v114.638v16.033h-16.135h-115.363l-81.572,81.062l-11.412,11.338l-11.412-11.338l-81.572-81.062h-115.361h-16.137
		v-16.033v-114.638l-81.572-81.059l-11.412-11.341l11.412-11.338l81.572-81.062v-114.635v-16.036h16.137h115.361l81.572-81.059
		l11.412-11.341L1595.449,1705.531z M1387.555,2588.985l-75.404,73.934l74.434,74.961l4.643,4.675l-0.039,6.601l-0.704,105.356
		l105.932,0.699l6.719,0.039l4.686,4.72l74.402,74.927l75.433-73.966l4.706-4.618l6.64,0.045l106.023,0.699l0.704-105.266
		l0.039-6.684l4.752-4.65l75.401-73.934l-74.434-74.959l-4.647-4.684l0.046-6.594l0.704-105.356l-105.934-0.699l-6.724-0.043
		l-4.679-4.716l-74.402-74.927l-75.436,73.966l-4.711,4.611l-6.635-0.038l-106.023-0.699l-0.703,105.266l-0.046,6.677
		L1387.555,2588.985z M1278.117,2651.368l82.128-80.528l0.77-114.599l0.103-16.016l16.032,0.109l115.416,0.765l82.16-80.559
		l11.431-11.219l11.321,11.404l81.037,81.611l115.322,0.762l16.112,0.102l-0.105,15.934l-0.767,114.688l81.069,81.643l11.283,11.359
		l-11.469,11.25l-82.128,80.528l-0.767,114.599l-0.112,16.009l-16.026-0.102l-115.413-0.762l-82.162,80.559l-11.435,11.212
		l-11.317-11.399l-81.037-81.611l-115.322-0.763l-16.117-0.108l0.109-15.927l0.767-114.688l-81.069-81.643l-11.29-11.366
		L1278.117,2651.368z M1658.924,3103.771l-74.887-74.416l-74.885,74.416l-4.725,4.695h-6.688h-105.913v105.245v6.646l-4.725,4.695
		l-74.885,74.416l74.885,74.414l4.725,4.695v6.646v105.248h105.913h6.688l4.725,4.695l74.885,74.414l74.887-74.414l4.725-4.695
		h6.685h105.913v-105.248v-6.646l4.725-4.695l74.887-74.414l-74.887-74.416l-4.725-4.695v-6.646v-105.245h-105.913h-6.685
		L1658.924,3103.771z M1595.449,2995.335l81.572,81.059h115.363h16.135v16.036v114.638l81.572,81.059l11.412,11.341l-11.412,11.338
		l-81.572,81.062v114.635v16.036h-16.135h-115.363l-81.572,81.059l-11.412,11.341l-11.412-11.341l-81.572-81.059h-115.361h-16.137
		v-16.036v-114.635l-81.572-81.062l-11.412-11.338l11.412-11.341l81.572-81.059V3092.43v-16.036h16.137h115.361l81.572-81.059
		l11.412-11.338L1595.449,2995.335z M1882.134,329.226l-75.401,73.934l74.434,74.961l4.641,4.681l-0.039,6.594l-0.704,105.356
		l105.934,0.699l6.717,0.038l4.686,4.72l74.402,74.93l75.435-73.966l4.705-4.618l6.642,0.043l106.023,0.699l0.704-105.266
		l0.039-6.677l4.75-4.657l75.404-73.934l-74.436-74.959l-4.645-4.677l0.043-6.598l0.704-105.356l-105.932-0.699l-6.726-0.038
		l-4.679-4.722l-74.402-74.927l-75.433,73.965l-4.711,4.618l-6.635-0.045l-106.023-0.699l-0.704,105.268l-0.046,6.682
		L1882.134,329.226z M1772.698,391.609l82.128-80.527l0.767-114.597l0.105-16.011l16.033,0.104l115.413,0.762l82.16-80.559
		l11.433-11.212l11.321,11.397l81.037,81.611l115.322,0.763l16.11,0.111l-0.103,15.925l-0.767,114.688l81.069,81.645l11.283,11.364
		l-11.469,11.245l-82.128,80.527l-0.77,114.597l-0.109,16.008l-16.026-0.102l-115.415-0.763l-82.16,80.559l-11.438,11.212
		l-11.314-11.397l-81.037-81.611l-115.322-0.765l-16.119-0.109l0.112-15.925l0.767-114.69l-81.069-81.643l-11.289-11.359
		L1772.698,391.609z M2153.503,844.013l-74.885-74.414l-74.887,74.414l-4.725,4.695h-6.685h-105.913v105.248v6.643l-4.725,4.695
		l-74.887,74.416l74.887,74.414l4.725,4.695v6.645v105.248h105.913h6.685l4.725,4.695l74.887,74.414l74.885-74.414l4.725-4.695
		h6.688h105.914v-105.248v-6.645l4.725-4.695l74.885-74.414l-74.885-74.416l-4.725-4.695v-6.643V848.707h-105.914h-6.688
		L2153.503,844.013z M2090.028,735.579l81.574,81.059h115.361h16.137v16.034V947.31l81.572,81.059l11.412,11.34l-11.412,11.341
		l-81.572,81.059v114.635v16.036h-16.137h-115.361l-81.574,81.059l-11.41,11.341l-11.412-11.341l-81.572-81.059H1870.27h-16.135
		v-16.036v-114.635l-81.574-81.059l-11.41-11.341l11.41-11.34l81.574-81.059V832.672v-16.034h16.135h115.363l81.572-81.059
		l11.412-11.341L2090.028,735.579z M1882.134,1619.033l-75.401,73.934l74.434,74.959l4.641,4.677l-0.039,6.6l-0.704,105.354
		l105.934,0.699l6.717,0.039l4.686,4.722l74.402,74.927l75.435-73.966l4.705-4.618l6.642,0.045l106.023,0.699l0.704-105.266
		l0.039-6.684l4.75-4.65l75.404-73.934l-74.436-74.961l-4.645-4.682l0.043-6.594l0.704-105.356l-105.932-0.699l-6.726-0.045
		l-4.679-4.713l-74.402-74.927l-75.433,73.966l-4.711,4.611l-6.635-0.038l-106.023-0.699l-0.704,105.266l-0.046,6.677
		L1882.134,1619.033z M1772.698,1681.416l82.128-80.528l0.767-114.599l0.105-16.016l16.033,0.109l115.413,0.762l82.16-80.559
		l11.433-11.218l11.321,11.404l81.037,81.611l115.322,0.765l16.11,0.102l-0.103,15.932l-0.767,114.69l81.069,81.643l11.283,11.359
		l-11.469,11.25l-82.128,80.527l-0.77,114.599l-0.109,16.009l-16.026-0.102l-115.415-0.765l-82.16,80.559l-11.438,11.212
		l-11.314-11.397l-81.037-81.611l-115.322-0.762l-16.119-0.109l0.112-15.927l0.767-114.688l-81.069-81.643l-11.289-11.366
		L1772.698,1681.416z M2153.503,2133.816l-74.885-74.413l-74.887,74.413l-4.725,4.695h-6.685h-105.913v105.248v6.646l-4.725,4.695
		l-74.887,74.414l74.887,74.416l4.725,4.695v6.646v105.245h105.913h6.685l4.725,4.695l74.887,74.416l74.885-74.416l4.725-4.695
		h6.688h105.914V2415.27v-6.646l4.725-4.695l74.885-74.416l-74.885-74.414l-4.725-4.695v-6.646v-105.248h-105.914h-6.688
		L2153.503,2133.816z M2090.028,2025.383l81.574,81.059h115.361h16.137v16.036v114.635l81.572,81.062l11.412,11.339l-11.412,11.341
		l-81.572,81.059v114.638v16.033h-16.137h-115.361l-81.574,81.062l-11.41,11.338l-11.412-11.338l-81.572-81.062H1870.27h-16.135
		v-16.033v-114.638l-81.574-81.059l-11.41-11.341l11.41-11.339l81.574-81.062v-114.635v-16.036h16.135h115.363l81.572-81.059
		l11.412-11.341L2090.028,2025.383z M1882.134,2908.837l-75.401,73.934l74.434,74.961l4.641,4.675l-0.039,6.6l-0.704,105.356
		l105.934,0.699l6.717,0.039l4.686,4.72l74.402,74.927l75.435-73.966l4.705-4.618l6.642,0.045l106.023,0.699l0.704-105.266
		l0.039-6.684l4.75-4.65l75.404-73.934l-74.436-74.959l-4.645-4.684l0.043-6.594l0.704-105.354l-105.932-0.699l-6.726-0.045
		l-4.679-4.716l-74.402-74.927l-75.433,73.966l-4.711,4.612l-6.635-0.039l-106.023-0.699l-0.704,105.266l-0.046,6.677
		L1882.134,2908.837z M1772.698,2971.219l82.128-80.528l0.767-114.599l0.105-16.015l16.033,0.108l115.413,0.765l82.16-80.559
		l11.433-11.219l11.321,11.404l81.037,81.611l115.322,0.762l16.11,0.104l-0.103,15.932l-0.767,114.688l81.069,81.643l11.283,11.359
		l-11.469,11.25l-82.128,80.527l-0.77,114.599l-0.109,16.009l-16.026-0.102l-115.415-0.762l-82.16,80.559l-11.438,11.212
		l-11.314-11.397l-81.037-81.611l-115.322-0.765l-16.119-0.109l0.112-15.925l0.767-114.69l-81.069-81.643l-11.289-11.365
		L1772.698,2971.219z M2153.503,3423.623l-74.885-74.416l-74.887,74.416l-4.725,4.695h-6.685h-105.913v105.248v6.643l-4.725,4.695
		l-74.887,74.416l74.887,74.414l4.725,4.695v6.646v105.248h105.913h6.685l4.725,4.695l74.887,74.414l74.885-74.414l4.725-4.695
		h6.688h105.914v-105.248v-6.646l4.725-4.695l74.885-74.414l-74.885-74.416l-4.725-4.695v-6.643v-105.248h-105.914h-6.688
		L2153.503,3423.623z M2090.028,3315.187l81.574,81.062h115.361h16.137v16.033v114.638l81.572,81.059l11.412,11.341l-11.412,11.338
		l-81.572,81.062v114.635v16.036h-16.137h-115.361l-81.574,81.059l-11.41,11.341l-11.412-11.341l-81.572-81.059H1870.27h-16.135
		v-16.036V3711.72l-81.574-81.062l-11.41-11.338l11.41-11.341l81.574-81.059v-114.638v-16.033h16.135h115.363l81.572-81.062
		l11.412-11.338L2090.028,3315.187z M2653.867,524.161l-74.886-74.416l-74.885,74.416l-4.725,4.695h-6.688H2386.77v105.247v6.643
		l-4.723,4.695l-74.887,74.416l74.887,74.414l4.723,4.695v6.645V910.86h105.913h6.688l4.725,4.695l74.885,74.414l74.886-74.414
		l4.725-4.695h6.688h105.911V805.612v-6.645l4.725-4.695l74.887-74.414l-74.887-74.416l-4.725-4.695v-6.643V528.856H2665.28h-6.688
		L2653.867,524.161z M2590.393,415.725l81.572,81.061h115.363h16.137v16.034v114.638l81.572,81.059l11.41,11.341l-11.41,11.338
		l-81.572,81.061v114.635v16.036h-16.137h-115.363l-81.572,81.059l-11.412,11.341l-11.41-11.341l-81.574-81.059h-115.361h-16.137
		v-16.036V812.258l-81.572-81.061l-11.413-11.338l11.413-11.341l81.572-81.059V512.82v-16.034h16.137h115.361l81.574-81.061
		l11.41-11.338L2590.393,415.725z M2382.499,1299.181l-75.401,73.934l74.434,74.959l4.641,4.677l-0.039,6.598l-0.704,105.356
		l105.932,0.699l6.719,0.039l4.686,4.722l74.402,74.927l75.433-73.966l4.707-4.618l6.642,0.045l106.023,0.699l0.704-105.266
		l0.039-6.684l4.75-4.65l75.401-73.934l-74.434-74.961l-4.647-4.682l0.045-6.593l0.704-105.356l-105.932-0.699l-6.726-0.045
		l-4.679-4.713l-74.402-74.93l-75.436,73.968l-4.711,4.611l-6.635-0.038l-106.023-0.699l-0.703,105.266l-0.046,6.677
		L2382.499,1299.181z M2273.062,1361.561l82.128-80.527l0.767-114.597l0.102-16.015l16.033,0.109l115.415,0.763l82.16-80.559
		l11.431-11.219l11.321,11.404l81.037,81.611l115.324,0.765l16.11,0.102l-0.102,15.932l-0.77,114.69l81.069,81.643l11.282,11.359
		l-11.469,11.25l-82.127,80.528l-0.767,114.599l-0.11,16.009l-16.028-0.104l-115.414-0.763l-82.159,80.559l-11.438,11.212
		l-11.315-11.397l-81.037-81.611l-115.324-0.763l-16.117-0.109l0.109-15.927l0.767-114.688l-81.069-81.643l-11.287-11.365
		L2273.062,1361.561z M2653.867,1813.965l-74.886-74.414l-74.885,74.414l-4.725,4.695h-6.688H2386.77v105.247v6.646l-4.723,4.695
		l-74.887,74.414l74.887,74.416l4.723,4.695v6.644v105.248h105.913h6.688l4.725,4.695l74.885,74.416l74.886-74.416l4.725-4.695
		h6.688h105.911v-105.248v-6.644l4.725-4.695l74.887-74.416l-74.887-74.414l-4.725-4.695v-6.646V1818.66H2665.28h-6.688
		L2653.867,1813.965z M2590.393,1705.531l81.572,81.059h115.363h16.137v16.036v114.635l81.572,81.062l11.41,11.338l-11.41,11.341
		l-81.572,81.059v114.638v16.033h-16.137h-115.363l-81.572,81.062l-11.412,11.338l-11.41-11.338l-81.574-81.062h-115.361h-16.137
		v-16.033v-114.638l-81.572-81.059l-11.413-11.341l11.413-11.338l81.572-81.062v-114.635v-16.036h16.137h115.361l81.574-81.059
		l11.41-11.341L2590.393,1705.531z M2382.499,2588.985l-75.401,73.934l74.434,74.961l4.641,4.675l-0.039,6.601l-0.704,105.356
		l105.932,0.699l6.719,0.039l4.686,4.72l74.402,74.927l75.433-73.966l4.707-4.618l6.642,0.045l106.023,0.699l0.704-105.266
		l0.039-6.684l4.75-4.65l75.401-73.934l-74.434-74.959l-4.647-4.684l0.045-6.594l0.704-105.356l-105.932-0.699l-6.726-0.043
		l-4.679-4.716l-74.402-74.927l-75.436,73.966l-4.711,4.611l-6.635-0.038l-106.023-0.699l-0.703,105.266l-0.046,6.677
		L2382.499,2588.985z M2273.062,2651.368l82.128-80.528l0.767-114.599l0.102-16.016l16.033,0.109l115.415,0.765l82.16-80.559
		l11.431-11.219l11.321,11.404l81.037,81.611l115.324,0.762l16.11,0.102l-0.102,15.934l-0.77,114.688l81.069,81.643l11.282,11.359
		l-11.469,11.25l-82.127,80.528l-0.767,114.599l-0.11,16.009l-16.028-0.102l-115.414-0.762l-82.159,80.559l-11.438,11.212
		l-11.315-11.399l-81.037-81.611l-115.324-0.763l-16.117-0.108l0.109-15.927l0.767-114.688l-81.069-81.643l-11.287-11.366
		L2273.062,2651.368z M2653.867,3103.771l-74.886-74.416l-74.885,74.416l-4.725,4.695h-6.688H2386.77v105.245v6.646l-4.723,4.695
		l-74.887,74.416l74.887,74.414l4.723,4.695v6.646v105.248h105.913h6.688l4.725,4.695l74.885,74.414l74.886-74.414l4.725-4.695
		h6.688h105.911v-105.248v-6.646l4.725-4.695l74.887-74.414l-74.887-74.416l-4.725-4.695v-6.646v-105.245H2665.28h-6.688
		L2653.867,3103.771z M2590.393,2995.335l81.572,81.059h115.363h16.137v16.036v114.638l81.572,81.059l11.41,11.341l-11.41,11.338
		l-81.572,81.062v114.635v16.036h-16.137h-115.363l-81.572,81.059l-11.412,11.341l-11.41-11.341l-81.574-81.059h-115.361h-16.137
		v-16.036v-114.635l-81.572-81.062l-11.413-11.338l11.413-11.341l81.572-81.059V3092.43v-16.036h16.137h115.361l81.574-81.059
		l11.41-11.338L2590.393,2995.335z M2877.08,329.226l-75.404,73.934l74.434,74.961l4.643,4.681l-0.039,6.594l-0.704,105.356
		l105.932,0.699l6.72,0.038l4.686,4.72l74.402,74.93l75.433-73.966l4.707-4.618l6.64,0.043l106.023,0.699l0.703-105.266l0.039-6.677
		l4.752-4.657l75.401-73.934l-74.434-74.959l-4.647-4.677l0.045-6.598l0.704-105.356l-105.934-0.699l-6.724-0.038l-4.679-4.722
		l-74.402-74.927l-75.436,73.965l-4.711,4.618l-6.635-0.045l-106.023-0.699l-0.704,105.268l-0.045,6.682L2877.08,329.226z
		 M2767.641,391.609l82.128-80.527l0.77-114.597l0.103-16.011l16.033,0.104l115.415,0.762l82.16-80.559l11.431-11.212l11.322,11.397
		l81.037,81.611l115.323,0.763l16.112,0.111l-0.105,15.925l-0.767,114.688l81.069,81.645l11.283,11.364l-11.469,11.245
		l-82.128,80.527l-0.768,114.597l-0.112,16.008l-16.026-0.102l-115.413-0.763l-82.16,80.559l-11.437,11.212l-11.317-11.397
		l-81.037-81.611l-115.322-0.765l-16.117-0.109l0.109-15.925l0.768-114.69l-81.069-81.643l-11.29-11.359L2767.641,391.609z
		 M3148.448,844.013l-74.886-74.414l-74.885,74.414l-4.725,4.695h-6.688h-105.914v105.248v6.643l-4.725,4.695l-74.885,74.416
		l74.885,74.414l4.725,4.695v6.645v105.248h105.914h6.688l4.725,4.695l74.885,74.414l74.886-74.414l4.725-4.695h6.685h105.914
		v-105.248v-6.645l4.725-4.695l74.887-74.414l-74.887-74.416l-4.725-4.695v-6.643V848.707h-105.914h-6.685L3148.448,844.013z
		 M3084.974,735.579l81.572,81.059h115.363h16.135v16.034V947.31l81.574,81.059l11.41,11.34l-11.41,11.341l-81.574,81.059v114.635
		v16.036h-16.135h-115.363l-81.572,81.059l-11.412,11.341l-11.413-11.341l-81.572-81.059h-115.361h-16.137v-16.036v-114.635
		l-81.573-81.059l-11.412-11.341l11.412-11.34l81.573-81.059V832.672v-16.034h16.137h115.361l81.572-81.059l11.413-11.341
		L3084.974,735.579z M2877.08,1619.033l-75.404,73.934l74.434,74.959l4.643,4.677l-0.039,6.6l-0.704,105.354l105.932,0.699
		l6.72,0.039l4.686,4.722l74.402,74.927l75.433-73.966l4.707-4.618l6.64,0.045l106.023,0.699l0.703-105.266l0.039-6.684l4.752-4.65
		l75.401-73.934l-74.434-74.961l-4.647-4.682l0.045-6.594l0.704-105.356l-105.934-0.699l-6.724-0.045l-4.679-4.713l-74.402-74.927
		l-75.436,73.966l-4.711,4.611l-6.635-0.038l-106.023-0.699l-0.704,105.266l-0.045,6.677L2877.08,1619.033z M2767.641,1681.416
		l82.128-80.528l0.77-114.599l0.103-16.016l16.033,0.109l115.415,0.762l82.16-80.559l11.431-11.218l11.322,11.404l81.037,81.611
		l115.323,0.765l16.112,0.102l-0.105,15.932l-0.767,114.69l81.069,81.643l11.283,11.359l-11.469,11.25l-82.128,80.527
		l-0.768,114.599l-0.112,16.009l-16.026-0.102l-115.413-0.765l-82.16,80.559l-11.437,11.212l-11.317-11.397l-81.037-81.611
		l-115.322-0.762l-16.117-0.109l0.109-15.927l0.768-114.688l-81.069-81.643l-11.29-11.366L2767.641,1681.416z M3148.448,2133.816
		l-74.886-74.413l-74.885,74.413l-4.725,4.695h-6.688h-105.914v105.248v6.646l-4.725,4.695l-74.885,74.414l74.885,74.416
		l4.725,4.695v6.646v105.245h105.914h6.688l4.725,4.695l74.885,74.416l74.886-74.416l4.725-4.695h6.685h105.914V2415.27v-6.646
		l4.725-4.695l74.887-74.416l-74.887-74.414l-4.725-4.695v-6.646v-105.248h-105.914h-6.685L3148.448,2133.816z M3084.974,2025.383
		l81.572,81.059h115.363h16.135v16.036v114.635l81.574,81.062l11.41,11.339l-11.41,11.341l-81.574,81.059v114.638v16.033h-16.135
		h-115.363l-81.572,81.062l-11.412,11.338l-11.413-11.338l-81.572-81.062h-115.361h-16.137v-16.033v-114.638l-81.573-81.059
		l-11.412-11.341l11.412-11.339l81.573-81.062v-114.635v-16.036h16.137h115.361l81.572-81.059l11.413-11.341L3084.974,2025.383z
		 M2877.08,2908.837l-75.404,73.934l74.434,74.961l4.643,4.675l-0.039,6.6l-0.704,105.356l105.932,0.699l6.72,0.039l4.686,4.72
		l74.402,74.927l75.433-73.966l4.707-4.618l6.64,0.045l106.023,0.699l0.703-105.266l0.039-6.684l4.752-4.65l75.401-73.934
		l-74.434-74.959l-4.647-4.684l0.045-6.594l0.704-105.354l-105.934-0.699l-6.724-0.045l-4.679-4.716l-74.402-74.927l-75.436,73.966
		l-4.711,4.612l-6.635-0.039l-106.023-0.699l-0.704,105.266l-0.045,6.677L2877.08,2908.837z M2767.641,2971.219l82.128-80.528
		l0.77-114.599l0.103-16.015l16.033,0.108l115.415,0.765l82.16-80.559l11.431-11.219l11.322,11.404l81.037,81.611l115.323,0.762
		l16.112,0.104l-0.105,15.932l-0.767,114.688l81.069,81.643l11.283,11.359l-11.469,11.25l-82.128,80.527l-0.768,114.599
		l-0.112,16.009l-16.026-0.102l-115.413-0.762l-82.16,80.559l-11.437,11.212l-11.317-11.397l-81.037-81.611l-115.322-0.765
		l-16.117-0.109l0.109-15.925l0.768-114.69l-81.069-81.643l-11.29-11.365L2767.641,2971.219z M3148.448,3423.623l-74.886-74.416
		l-74.885,74.416l-4.725,4.695h-6.688h-105.914v105.248v6.643l-4.725,4.695l-74.885,74.416l74.885,74.414l4.725,4.695v6.646v105.248
		h105.914h6.688l4.725,4.695l74.885,74.414l74.886-74.414l4.725-4.695h6.685h105.914v-105.248v-6.646l4.725-4.695l74.887-74.414
		l-74.887-74.416l-4.725-4.695v-6.643v-105.248h-105.914h-6.685L3148.448,3423.623z M3084.974,3315.187l81.572,81.062h115.363
		h16.135v16.033v114.638l81.574,81.059l11.41,11.341l-11.41,11.338l-81.574,81.062v114.635v16.036h-16.135h-115.363l-81.572,81.059
		l-11.412,11.341l-11.413-11.341l-81.572-81.059h-115.361h-16.137v-16.036V3711.72l-81.573-81.062l-11.412-11.338l11.412-11.341
		l81.573-81.059v-114.638v-16.033h16.137h115.361l81.572-81.062l11.413-11.338L3084.974,3315.187z M3648.811,524.161l-74.885-74.416
		l-74.886,74.416l-4.725,4.695h-6.688h-105.911v105.247v6.643l-4.725,4.695l-74.887,74.416l74.887,74.414l4.725,4.695v6.645V910.86
		h105.911h6.688l4.725,4.695l74.886,74.414l74.885-74.414l4.725-4.695h6.688h105.914V805.612v-6.645l4.725-4.695l74.885-74.414
		l-74.885-74.416l-4.725-4.695v-6.643V528.856h-105.914h-6.688L3648.811,524.161z M3585.337,415.725l81.574,81.061h115.361h16.137
		v16.034v114.638l81.572,81.059l11.412,11.341l-11.412,11.338l-81.572,81.061v114.635v16.036h-16.137h-115.361l-81.574,81.059
		l-11.41,11.341l-11.412-11.341l-81.572-81.059h-115.363h-16.135v-16.036V812.258l-81.574-81.061l-11.41-11.338l11.41-11.341
		l81.574-81.059V512.82v-16.034h16.135h115.363l81.572-81.061l11.412-11.338L3585.337,415.725z M3377.442,1299.181l-75.402,73.934
		l74.434,74.959l4.641,4.677l-0.039,6.598l-0.704,105.356l105.932,0.699l6.719,0.039l4.686,4.722l74.402,74.927l75.436-73.966
		l4.704-4.618l6.642,0.045l106.023,0.699l0.704-105.266l0.039-6.684l4.75-4.65l75.402-73.934l-74.434-74.961l-4.647-4.682
		l0.045-6.593l0.704-105.356l-105.932-0.699l-6.726-0.045l-4.679-4.713l-74.402-74.93l-75.434,73.968l-4.713,4.611l-6.635-0.038
		l-106.021-0.699l-0.703,105.266l-0.046,6.677L3377.442,1299.181z M3268.006,1361.561l82.127-80.527l0.768-114.597l0.104-16.015
		l16.033,0.109l115.413,0.763l82.159-80.559l11.431-11.219l11.321,11.404l81.037,81.611l115.324,0.765l16.11,0.102l-0.103,15.932
		l-0.767,114.69l81.069,81.643l11.283,11.359l-11.47,11.25l-82.127,80.528l-0.77,114.599l-0.11,16.009l-16.025-0.104l-115.416-0.763
		l-82.16,80.559l-11.438,11.212l-11.315-11.397l-81.037-81.611l-115.324-0.763l-16.117-0.109l0.109-15.927l0.77-114.688
		l-81.069-81.643l-11.289-11.365L3268.006,1361.561z M3648.811,1813.965l-74.885-74.414l-74.886,74.414l-4.725,4.695h-6.688
		h-105.911v105.247v6.646l-4.725,4.695l-74.887,74.414l74.887,74.416l4.725,4.695v6.644v105.248h105.911h6.688l4.725,4.695
		l74.886,74.416l74.885-74.416l4.725-4.695h6.688h105.914v-105.248v-6.644l4.725-4.695l74.885-74.416l-74.885-74.414l-4.725-4.695
		v-6.646V1818.66h-105.914h-6.688L3648.811,1813.965z M3585.337,1705.531l81.574,81.059h115.361h16.137v16.036v114.635
		l81.572,81.062l11.412,11.338l-11.412,11.341l-81.572,81.059v114.638v16.033h-16.137h-115.361l-81.574,81.062l-11.41,11.338
		l-11.412-11.338l-81.572-81.062h-115.363h-16.135v-16.033v-114.638l-81.574-81.059l-11.41-11.341l11.41-11.338l81.574-81.062
		v-114.635v-16.036h16.135h115.363l81.572-81.059l11.412-11.341L3585.337,1705.531z M3377.442,2588.985l-75.402,73.934
		l74.434,74.961l4.641,4.675l-0.039,6.601l-0.704,105.356l105.932,0.699l6.719,0.039l4.686,4.72l74.402,74.927l75.436-73.966
		l4.704-4.618l6.642,0.045l106.023,0.699l0.704-105.266l0.039-6.684l4.75-4.65l75.402-73.934l-74.434-74.959l-4.647-4.684
		l0.045-6.594l0.704-105.356l-105.932-0.699l-6.726-0.043l-4.679-4.716l-74.402-74.927l-75.434,73.966l-4.713,4.611l-6.635-0.038
		l-106.021-0.699l-0.703,105.266l-0.046,6.677L3377.442,2588.985z M3268.006,2651.368l82.127-80.528l0.768-114.599l0.104-16.016
		l16.033,0.109l115.413,0.765l82.159-80.559l11.431-11.219l11.321,11.404l81.037,81.611l115.324,0.762l16.11,0.102l-0.103,15.934
		l-0.767,114.688l81.069,81.643l11.283,11.359l-11.47,11.25l-82.127,80.528l-0.77,114.599l-0.11,16.009l-16.025-0.102
		l-115.416-0.762l-82.16,80.559l-11.438,11.212l-11.315-11.399l-81.037-81.611l-115.324-0.763l-16.117-0.108l0.109-15.927
		l0.77-114.688l-81.069-81.643l-11.289-11.366L3268.006,2651.368z M3648.811,3103.771l-74.885-74.416l-74.886,74.416l-4.725,4.695
		h-6.688h-105.911v105.245v6.646l-4.725,4.695l-74.887,74.416l74.887,74.414l4.725,4.695v6.646v105.248h105.911h6.688l4.725,4.695
		l74.886,74.414l74.885-74.414l4.725-4.695h6.688h105.914v-105.248v-6.646l4.725-4.695l74.885-74.414l-74.885-74.416l-4.725-4.695
		v-6.646v-105.245h-105.914h-6.688L3648.811,3103.771z M3585.337,2995.335l81.574,81.059h115.361h16.137v16.036v114.638
		l81.572,81.059l11.412,11.341l-11.412,11.338l-81.572,81.062v114.635v16.036h-16.137h-115.361l-81.574,81.059l-11.41,11.341
		l-11.412-11.341l-81.572-81.059h-115.363h-16.135v-16.036v-114.635l-81.574-81.062l-11.41-11.338l11.41-11.341l81.574-81.059
		V3092.43v-16.036h16.135h115.363l81.572-81.059l11.412-11.338L3585.337,2995.335z M3872.023,329.226l-75.401,73.934l74.434,74.961
		l4.64,4.681l-0.039,6.594l-0.704,105.356l105.932,0.699l6.72,0.038l4.686,4.72l74.402,74.93l75.433-73.966l4.707-4.618l6.642,0.043
		l106.022,0.699l0.704-105.266l0.039-6.677l4.75-4.657l75.401-73.934l-74.434-74.959l-4.647-4.677l0.045-6.598l0.704-105.356
		l-105.932-0.699l-6.727-0.038l-4.679-4.722l-74.402-74.927l-75.436,73.965l-4.711,4.618l-6.635-0.045l-106.023-0.699
		l-0.704,105.268l-0.045,6.682L3872.023,329.226z M3762.587,391.609l82.128-80.527l0.767-114.597l0.103-16.011l16.035,0.104
		l115.413,0.762l82.159-80.559l11.431-11.212l11.321,11.397l81.037,81.611l115.325,0.763l16.11,0.111l-0.103,15.925l-0.77,114.688
		l81.069,81.645l11.283,11.364l-11.469,11.245l-82.128,80.527l-0.768,114.597l-0.109,16.008l-16.028-0.102l-115.413-0.763
		l-82.16,80.559l-11.437,11.212l-11.314-11.397l-81.037-81.611l-115.324-0.765l-16.117-0.109l0.11-15.925l0.767-114.69
		l-81.069-81.643l-11.287-11.359L3762.587,391.609z M4143.392,844.013l-74.886-74.414l-74.885,74.414l-4.725,4.695h-6.688h-105.914
		v105.248v6.643l-4.723,4.695l-74.886,74.416l74.886,74.414l4.723,4.695v6.645v105.248h105.914h6.688l4.725,4.695l74.885,74.414
		l74.886-74.414l4.725-4.695h6.688h105.912v-105.248v-6.645l4.725-4.695l74.887-74.414l-74.887-74.416l-4.725-4.695v-6.643V848.707
		h-105.912h-6.688L4143.392,844.013z M4079.917,735.579l81.572,81.059h115.363h16.137v16.034V947.31l81.572,81.059l11.411,11.34
		l-11.411,11.341l-81.572,81.059v114.635v16.036h-16.137H4161.49l-81.572,81.059l-11.412,11.341l-11.41-11.341l-81.572-81.059
		H3860.16h-16.138v-16.036v-114.635l-81.572-81.059l-11.412-11.341l11.412-11.34l81.572-81.059V832.672v-16.034h16.138h115.363
		l81.572-81.059l11.41-11.341L4079.917,735.579z M3872.023,1619.033l-75.401,73.934l74.434,74.959l4.64,4.677l-0.039,6.6
		l-0.704,105.354l105.932,0.699l6.72,0.039l4.686,4.722l74.402,74.927l75.433-73.966l4.707-4.618l6.642,0.045l106.022,0.699
		l0.704-105.266l0.039-6.684l4.75-4.65l75.401-73.934l-74.434-74.961l-4.647-4.682l0.045-6.594l0.704-105.356l-105.932-0.699
		l-6.727-0.045l-4.679-4.713l-74.402-74.927l-75.436,73.966l-4.711,4.611l-6.635-0.038l-106.023-0.699l-0.704,105.266l-0.045,6.677
		L3872.023,1619.033z M3762.587,1681.416l82.128-80.528l0.767-114.599l0.103-16.016l16.035,0.109l115.413,0.762l82.159-80.559
		l11.431-11.218l11.321,11.404l81.037,81.611l115.325,0.765l16.11,0.102l-0.103,15.932l-0.77,114.69l81.069,81.643l11.283,11.359
		l-11.469,11.25l-82.128,80.527l-0.768,114.599l-0.109,16.009l-16.028-0.102l-115.413-0.765l-82.16,80.559l-11.437,11.212
		l-11.314-11.397l-81.037-81.611l-115.324-0.762l-16.117-0.109l0.11-15.927l0.767-114.688l-81.069-81.643l-11.287-11.366
		L3762.587,1681.416z M4143.392,2133.816l-74.886-74.413l-74.885,74.413l-4.725,4.695h-6.688h-105.914v105.248v6.646l-4.723,4.695
		l-74.886,74.414l74.886,74.416l4.723,4.695v6.646v105.245h105.914h6.688l4.725,4.695l74.885,74.416l74.886-74.416l4.725-4.695
		h6.688h105.912V2415.27v-6.646l4.725-4.695l74.887-74.416l-74.887-74.414l-4.725-4.695v-6.646v-105.248h-105.912h-6.688
		L4143.392,2133.816z M4079.917,2025.383l81.572,81.059h115.363h16.137v16.036v114.635l81.572,81.062l11.411,11.339l-11.411,11.341
		l-81.572,81.059v114.638v16.033h-16.137H4161.49l-81.572,81.062l-11.412,11.338l-11.41-11.338l-81.572-81.062H3860.16h-16.138
		v-16.033v-114.638l-81.572-81.059l-11.412-11.341l11.412-11.339l81.572-81.062v-114.635v-16.036h16.138h115.363l81.572-81.059
		l11.41-11.341L4079.917,2025.383z M3872.023,2908.837l-75.401,73.934l74.434,74.961l4.64,4.675l-0.039,6.6l-0.704,105.356
		l105.932,0.699l6.72,0.039l4.686,4.72l74.402,74.927l75.433-73.966l4.707-4.618l6.642,0.045l106.022,0.699l0.704-105.266
		l0.039-6.684l4.75-4.65l75.401-73.934l-74.434-74.959l-4.647-4.684l0.045-6.594l0.704-105.354l-105.932-0.699l-6.727-0.045
		l-4.679-4.716l-74.402-74.927l-75.436,73.966l-4.711,4.612l-6.635-0.039l-106.023-0.699l-0.704,105.266l-0.045,6.677
		L3872.023,2908.837z M3762.587,2971.219l82.128-80.528l0.767-114.599l0.103-16.015l16.035,0.108l115.413,0.765l82.159-80.559
		l11.431-11.219l11.321,11.404l81.037,81.611l115.325,0.762l16.11,0.104l-0.103,15.932l-0.77,114.688l81.069,81.643l11.283,11.359
		l-11.469,11.25l-82.128,80.527l-0.768,114.599l-0.109,16.009l-16.028-0.102l-115.413-0.762l-82.16,80.559l-11.437,11.212
		l-11.314-11.397l-81.037-81.611l-115.324-0.765l-16.117-0.109l0.11-15.925l0.767-114.69l-81.069-81.643l-11.287-11.365
		L3762.587,2971.219z M4143.392,3423.623l-74.886-74.416l-74.885,74.416l-4.725,4.695h-6.688h-105.914v105.248v6.643l-4.723,4.695
		l-74.886,74.416l74.886,74.414l4.723,4.695v6.646v105.248h105.914h6.688l4.725,4.695l74.885,74.414l74.886-74.414l4.725-4.695
		h6.688h105.912v-105.248v-6.646l4.725-4.695l74.887-74.414l-74.887-74.416l-4.725-4.695v-6.643v-105.248h-105.912h-6.688
		L4143.392,3423.623z M4079.917,3315.187l81.572,81.062h115.363h16.137v16.033v114.638l81.572,81.059l11.411,11.341l-11.411,11.338
		l-81.572,81.062v114.635v16.036h-16.137H4161.49l-81.572,81.059l-11.412,11.341l-11.41-11.341l-81.572-81.059H3860.16h-16.138
		v-16.036V3711.72l-81.572-81.062l-11.412-11.338l11.412-11.341l81.572-81.059v-114.638v-16.033h16.138h115.363l81.572-81.062
		l11.41-11.338L4079.917,3315.187z M4643.757,524.161l-74.887-74.416l-74.886,74.416l-4.725,4.695h-6.686h-105.914v105.247v6.643
		l-4.725,4.695l-74.885,74.416l74.885,74.414l4.725,4.695v6.645V910.86h105.914h6.686l4.725,4.695l74.886,74.414l74.887-74.414
		l4.722-4.695h6.688h105.913V805.612v-6.645l4.725-4.695l74.884-74.414l-74.884-74.416l-4.725-4.695v-6.643V528.856h-105.913h-6.688
		L4643.757,524.161z M4580.282,415.725l81.572,81.061h115.363h16.135v16.034v114.638l81.572,81.059l11.412,11.341l-11.412,11.338
		l-81.572,81.061v114.635v16.036h-16.135h-115.363l-81.572,81.059l-11.413,11.341l-11.412-11.341l-81.572-81.059h-115.364h-16.135
		v-16.036V812.258l-81.572-81.061l-11.413-11.338l11.413-11.341l81.572-81.059V512.82v-16.034h16.135h115.364l81.572-81.061
		l11.412-11.338L4580.282,415.725z M4372.388,1299.181l-75.404,73.934l74.434,74.959l4.64,4.677l-0.039,6.598l-0.704,105.356
		l105.934,0.699l6.72,0.039l4.684,4.722l74.402,74.927l75.436-73.966l4.704-4.618l6.642,0.045l106.023,0.699l0.704-105.266
		l0.039-6.684l4.75-4.65l75.403-73.934l-74.433-74.961l-4.647-4.682l0.045-6.593l0.701-105.356l-105.932-0.699l-6.724-0.045
		l-4.682-4.713l-74.399-74.93l-75.436,73.968l-4.711,4.611l-6.635-0.038l-106.023-0.699l-0.704,105.266l-0.045,6.677
		L4372.388,1299.181z M4262.95,1361.561l82.127-80.527l0.767-114.597l0.105-16.015l16.033,0.109l115.413,0.763l82.162-80.559
		l11.431-11.219l11.322,11.404l81.037,81.611l115.322,0.765l16.112,0.102l-0.105,15.932l-0.767,114.69l81.069,81.643l11.283,11.359
		l-11.469,11.25l-82.128,80.528l-0.77,114.599l-0.109,16.009l-16.025-0.104l-115.414-0.763l-82.162,80.559l-11.438,11.212
		l-11.315-11.397l-81.037-81.611l-115.322-0.763l-16.117-0.109l0.109-15.927l0.767-114.688l-81.069-81.643l-11.289-11.365
		L4262.95,1361.561z M4643.757,1813.965l-74.887-74.414l-74.886,74.414l-4.725,4.695h-6.686h-105.914v105.247v6.646l-4.725,4.695
		l-74.885,74.414l74.885,74.416l4.725,4.695v6.644v105.248h105.914h6.686l4.725,4.695l74.886,74.416l74.887-74.416l4.722-4.695
		h6.688h105.913v-105.248v-6.644l4.725-4.695l74.884-74.416l-74.884-74.414l-4.725-4.695v-6.646V1818.66h-105.913h-6.688
		L4643.757,1813.965z M4580.282,1705.531l81.572,81.059h115.363h16.135v16.036v114.635l81.572,81.062l11.412,11.338l-11.412,11.341
		l-81.572,81.059v114.638v16.033h-16.135h-115.363l-81.572,81.062l-11.413,11.338l-11.412-11.338l-81.572-81.062h-115.364h-16.135
		v-16.033v-114.638l-81.572-81.059l-11.413-11.341l11.413-11.338l81.572-81.062v-114.635v-16.036h16.135h115.364l81.572-81.059
		l11.412-11.341L4580.282,1705.531z M4372.388,2588.985l-75.404,73.934l74.434,74.961l4.64,4.675l-0.039,6.601l-0.704,105.356
		l105.934,0.699l6.72,0.039l4.684,4.72l74.402,74.927l75.436-73.966l4.704-4.618l6.642,0.045l106.023,0.699l0.704-105.266
		l0.039-6.684l4.75-4.65l75.403-73.934l-74.433-74.959l-4.647-4.684l0.045-6.594l0.701-105.356l-105.932-0.699l-6.724-0.043
		l-4.682-4.716l-74.399-74.927l-75.436,73.966l-4.711,4.611l-6.635-0.038l-106.023-0.699l-0.704,105.266l-0.045,6.677
		L4372.388,2588.985z M4262.95,2651.368l82.127-80.528l0.767-114.599l0.105-16.016l16.033,0.109l115.413,0.765l82.162-80.559
		l11.431-11.219l11.322,11.404l81.037,81.611l115.322,0.762l16.112,0.102l-0.105,15.934l-0.767,114.688l81.069,81.643l11.283,11.359
		l-11.469,11.25l-82.128,80.528l-0.77,114.599l-0.109,16.009l-16.025-0.102l-115.414-0.762l-82.162,80.559l-11.438,11.212
		l-11.315-11.399l-81.037-81.611l-115.322-0.763l-16.117-0.108l0.109-15.927l0.767-114.688l-81.069-81.643l-11.289-11.366
		L4262.95,2651.368z M4643.757,3103.771l-74.887-74.416l-74.886,74.416l-4.725,4.695h-6.686h-105.914v105.245v6.646l-4.725,4.695
		l-74.885,74.416l74.885,74.414l4.725,4.695v6.646v105.248h105.914h6.686l4.725,4.695l74.886,74.414l74.887-74.414l4.722-4.695
		h6.688h105.913v-105.248v-6.646l4.725-4.695l74.884-74.414l-74.884-74.416l-4.725-4.695v-6.646v-105.245h-105.913h-6.688
		L4643.757,3103.771z M4580.282,2995.335l81.572,81.059h115.363h16.135v16.036v114.638l81.572,81.059l11.412,11.341l-11.412,11.338
		l-81.572,81.062v114.635v16.036h-16.135h-115.363l-81.572,81.059l-11.413,11.341l-11.412-11.341l-81.572-81.059h-115.364h-16.135
		v-16.036v-114.635l-81.572-81.062l-11.413-11.338l11.413-11.341l81.572-81.059V3092.43v-16.036h16.135h115.364l81.572-81.059
		l11.412-11.338L4580.282,2995.335z M4866.967,329.226l-75.401,73.934l74.434,74.961l4.64,4.681l-0.039,6.594l-0.704,105.356
		l105.932,0.699l6.72,0.038l4.686,4.72l74.402,74.93l75.436-73.966l4.704-4.618l6.643,0.043l106.022,0.699l0.704-105.266
		l0.039-6.677l4.75-4.657l75.401-73.934l-74.434-74.959l-4.647-4.677l0.045-6.598l0.704-105.356l-105.932-0.699l-6.726-0.038
		l-4.679-4.722l-74.402-74.927l-75.434,73.965l-4.713,4.618l-6.635-0.045l-106.021-0.699l-0.704,105.268l-0.045,6.682
		L4866.967,329.226z M4757.53,391.609l82.128-80.527l0.767-114.597l0.105-16.011l16.033,0.104l115.413,0.762l82.16-80.559
		l11.431-11.212l11.321,11.397l81.037,81.611l115.324,0.763l16.11,0.111l-0.103,15.925l-0.768,114.688l81.069,81.645l11.283,11.364
		l-11.469,11.245l-82.127,80.527l-0.77,114.597l-0.109,16.008l-16.025-0.102l-115.416-0.763l-82.16,80.559l-11.437,11.212
		l-11.314-11.397l-81.037-81.611l-115.325-0.765l-16.117-0.109l0.109-15.925l0.77-114.69l-81.069-81.643l-11.29-11.359
		L4757.53,391.609z M5138.335,844.013l-74.884-74.414l-74.887,74.414l-4.725,4.695h-6.688h-105.911v105.248v6.643l-4.725,4.695
		l-74.887,74.416l74.887,74.414l4.725,4.695v6.645v105.248h105.911h6.688l4.725,4.695l74.887,74.414l74.884-74.414l4.725-4.695
		h6.688h105.914v-105.248v-6.645l4.725-4.695l74.884-74.414l-74.884-74.416l-4.725-4.695v-6.643V848.707h-105.914h-6.688
		L5138.335,844.013z M5074.861,735.579l81.574,81.059h115.361h16.137v16.034V947.31l81.572,81.059l11.412,11.34l-11.412,11.341
		l-81.572,81.059v114.635v16.036h-16.137h-115.361l-81.574,81.059l-11.41,11.341l-11.413-11.341l-81.572-81.059h-115.363h-16.135
		v-16.036v-114.635l-81.574-81.059l-11.41-11.341l11.41-11.34l81.574-81.059V832.672v-16.034h16.135h115.363l81.572-81.059
		l11.413-11.341L5074.861,735.579z M4866.967,1619.033l-75.401,73.934l74.434,74.959l4.64,4.677l-0.039,6.6l-0.704,105.354
		l105.932,0.699l6.72,0.039l4.686,4.722l74.402,74.927l75.436-73.966l4.704-4.618l6.643,0.045l106.022,0.699l0.704-105.266
		l0.039-6.684l4.75-4.65l75.401-73.934l-74.434-74.961l-4.647-4.682l0.045-6.594l0.704-105.356l-105.932-0.699l-6.726-0.045
		l-4.679-4.713l-74.402-74.927l-75.434,73.966l-4.713,4.611l-6.635-0.038l-106.021-0.699l-0.704,105.266l-0.045,6.677
		L4866.967,1619.033z M4757.53,1681.416l82.128-80.528l0.767-114.599l0.105-16.016l16.033,0.109l115.413,0.762l82.16-80.559
		l11.431-11.218l11.321,11.404l81.037,81.611l115.324,0.765l16.11,0.102l-0.103,15.932l-0.768,114.69l81.069,81.643l11.283,11.359
		l-11.469,11.25l-82.127,80.527l-0.77,114.599l-0.109,16.009l-16.025-0.102l-115.416-0.765l-82.16,80.559l-11.437,11.212
		l-11.314-11.397l-81.037-81.611l-115.325-0.762l-16.117-0.109l0.109-15.927l0.77-114.688l-81.069-81.643l-11.29-11.366
		L4757.53,1681.416z M5138.335,2133.816l-74.884-74.413l-74.887,74.413l-4.725,4.695h-6.688h-105.911v105.248v6.646l-4.725,4.695
		l-74.887,74.414l74.887,74.416l4.725,4.695v6.646v105.245h105.911h6.688l4.725,4.695l74.887,74.416l74.884-74.416l4.725-4.695
		h6.688h105.914V2415.27v-6.646l4.725-4.695l74.884-74.416l-74.884-74.414l-4.725-4.695v-6.646v-105.248h-105.914h-6.688
		L5138.335,2133.816z M5074.861,2025.383l81.574,81.059h115.361h16.137v16.036v114.635l81.572,81.062l11.412,11.339l-11.412,11.341
		l-81.572,81.059v114.638v16.033h-16.137h-115.361l-81.574,81.062l-11.41,11.338l-11.413-11.338l-81.572-81.062h-115.363h-16.135
		v-16.033v-114.638l-81.574-81.059l-11.41-11.341l11.41-11.339l81.574-81.062v-114.635v-16.036h16.135h115.363l81.572-81.059
		l11.413-11.341L5074.861,2025.383z M4866.967,2908.837l-75.401,73.934l74.434,74.961l4.64,4.675l-0.039,6.6l-0.704,105.356
		l105.932,0.699l6.72,0.039l4.686,4.72l74.402,74.927l75.436-73.966l4.704-4.618l6.643,0.045l106.022,0.699l0.704-105.266
		l0.039-6.684l4.75-4.65l75.401-73.934l-74.434-74.959l-4.647-4.684l0.045-6.594l0.704-105.354l-105.932-0.699l-6.726-0.045
		l-4.679-4.716l-74.402-74.927l-75.434,73.966l-4.713,4.612l-6.635-0.039l-106.021-0.699l-0.704,105.266l-0.045,6.677
		L4866.967,2908.837z M4757.53,2971.219l82.128-80.528l0.767-114.599l0.105-16.015l16.033,0.108l115.413,0.765l82.16-80.559
		l11.431-11.219l11.321,11.404l81.037,81.611l115.324,0.762l16.11,0.104l-0.103,15.932l-0.768,114.688l81.069,81.643l11.283,11.359
		l-11.469,11.25l-82.127,80.527l-0.77,114.599l-0.109,16.009l-16.025-0.102l-115.416-0.762l-82.16,80.559l-11.437,11.212
		l-11.314-11.397l-81.037-81.611l-115.325-0.765l-16.117-0.109l0.109-15.925l0.77-114.69l-81.069-81.643l-11.29-11.365
		L4757.53,2971.219z M5138.335,3423.623l-74.884-74.416l-74.887,74.416l-4.725,4.695h-6.688h-105.911v105.248v6.643l-4.725,4.695
		l-74.887,74.416l74.887,74.414l4.725,4.695v6.646v105.248h105.911h6.688l4.725,4.695l74.887,74.414l74.884-74.414l4.725-4.695
		h6.688h105.914v-105.248v-6.646l4.725-4.695l74.884-74.414l-74.884-74.416l-4.725-4.695v-6.643v-105.248h-105.914h-6.688
		L5138.335,3423.623z M5074.861,3315.187l81.574,81.062h115.361h16.137v16.033v114.638l81.572,81.059l11.412,11.341l-11.412,11.338
		l-81.572,81.062v114.635v16.036h-16.137h-115.361l-81.574,81.059l-11.41,11.341l-11.413-11.341l-81.572-81.059h-115.363h-16.135
		v-16.036V3711.72l-81.574-81.062l-11.41-11.338l11.41-11.341l81.574-81.059v-114.638v-16.033h16.135h115.363l81.572-81.062
		l11.413-11.338L5074.861,3315.187z M5638.7,524.161l-74.887-74.416l-74.885,74.416l-4.725,4.695h-6.688h-105.913v105.247v6.643
		l-4.725,4.695l-74.885,74.416l74.885,74.414l4.725,4.695v6.645V910.86h105.913h6.688l4.725,4.695l74.885,74.414l74.887-74.414
		l4.725-4.695h6.685h105.914V805.612v-6.645l4.725-4.695l74.887-74.414l-74.887-74.416l-4.725-4.695v-6.643V528.856H5650.11h-6.685
		L5638.7,524.161z M5575.226,415.725l81.572,81.061h115.363h16.135v16.034v114.638l81.574,81.059l11.41,11.341l-11.41,11.338
		l-81.574,81.061v114.635v16.036h-16.135h-115.363l-81.572,81.059l-11.413,11.341l-11.41-11.341l-81.574-81.059h-115.361h-16.138
		v-16.036V812.258l-81.572-81.061l-11.413-11.338l11.413-11.341l81.572-81.059V512.82v-16.034h16.138h115.361l81.574-81.061
		l11.41-11.338L5575.226,415.725z M5367.332,1299.181l-75.404,73.934l74.436,74.959l4.641,4.677l-0.039,6.598l-0.704,105.356
		l105.932,0.699l6.72,0.039l4.686,4.722l74.402,74.927l75.433-73.966l4.707-4.618l6.642,0.045l106.021,0.699l0.704-105.266
		l0.039-6.684l4.752-4.65l75.401-73.934l-74.434-74.961l-4.647-4.682l0.045-6.593l0.704-105.356l-105.932-0.699l-6.727-0.045
		l-4.679-4.713l-74.401-74.93l-75.436,73.968l-4.711,4.611l-6.635-0.038l-106.023-0.699l-0.703,105.266l-0.046,6.677
		L5367.332,1299.181z M5257.893,1361.561l82.127-80.527l0.77-114.597l0.102-16.015l16.033,0.109l115.416,0.763l82.16-80.559
		l11.431-11.219l11.321,11.404l81.037,81.611l115.324,0.765l16.11,0.102l-0.103,15.932l-0.77,114.69l81.068,81.643l11.283,11.359
		l-11.469,11.25l-82.128,80.528l-0.768,114.599l-0.109,16.009l-16.028-0.104l-115.414-0.763l-82.159,80.559l-11.438,11.212
		l-11.314-11.397l-81.038-81.611l-115.324-0.763l-16.117-0.109l0.109-15.927l0.767-114.688l-81.069-81.643l-11.29-11.365
		L5257.893,1361.561z M5638.7,1813.965l-74.887-74.414l-74.885,74.414l-4.725,4.695h-6.688h-105.913v105.247v6.646l-4.725,4.695
		l-74.885,74.414l74.885,74.416l4.725,4.695v6.644v105.248h105.913h6.688l4.725,4.695l74.885,74.416l74.887-74.416l4.725-4.695
		h6.685h105.914v-105.248v-6.644l4.725-4.695l74.887-74.416l-74.887-74.414l-4.725-4.695v-6.646V1818.66H5650.11h-6.685
		L5638.7,1813.965z M5575.226,1705.531l81.572,81.059h115.363h16.135v16.036v114.635l81.574,81.062l11.41,11.338l-11.41,11.341
		l-81.574,81.059v114.638v16.033h-16.135h-115.363l-81.572,81.062l-11.413,11.338l-11.41-11.338l-81.574-81.062h-115.361h-16.138
		v-16.033v-114.638l-81.572-81.059l-11.413-11.341l11.413-11.338l81.572-81.062v-114.635v-16.036h16.138h115.361l81.574-81.059
		l11.41-11.341L5575.226,1705.531z M5367.332,2588.985l-75.404,73.934l74.436,74.961l4.641,4.675l-0.039,6.601l-0.704,105.356
		l105.932,0.699l6.72,0.039l4.686,4.72l74.402,74.927l75.433-73.966l4.707-4.618l6.642,0.045l106.021,0.699l0.704-105.266
		l0.039-6.684l4.752-4.65l75.401-73.934l-74.434-74.959l-4.647-4.684l0.045-6.594l0.704-105.356l-105.932-0.699l-6.727-0.043
		l-4.679-4.716l-74.401-74.927l-75.436,73.966l-4.711,4.611l-6.635-0.038l-106.023-0.699l-0.703,105.266l-0.046,6.677
		L5367.332,2588.985z M5257.893,2651.368l82.127-80.528l0.77-114.599l0.102-16.016l16.033,0.109l115.416,0.765l82.16-80.559
		l11.431-11.219l11.321,11.404l81.037,81.611l115.324,0.762l16.11,0.102l-0.103,15.934l-0.77,114.688l81.068,81.643l11.283,11.359
		l-11.469,11.25l-82.128,80.528l-0.768,114.599l-0.109,16.009l-16.028-0.102l-115.414-0.762l-82.159,80.559l-11.438,11.212
		l-11.314-11.399l-81.038-81.611l-115.324-0.763l-16.117-0.108l0.109-15.927l0.767-114.688l-81.069-81.643l-11.29-11.366
		L5257.893,2651.368z M5638.7,3103.771l-74.887-74.416l-74.885,74.416l-4.725,4.695h-6.688h-105.913v105.245v6.646l-4.725,4.695
		l-74.885,74.416l74.885,74.414l4.725,4.695v6.646v105.248h105.913h6.688l4.725,4.695l74.885,74.414l74.887-74.414l4.725-4.695
		h6.685h105.914v-105.248v-6.646l4.725-4.695l74.887-74.414l-74.887-74.416l-4.725-4.695v-6.646v-105.245H5650.11h-6.685
		L5638.7,3103.771z M5575.226,2995.335l81.572,81.059h115.363h16.135v16.036v114.638l81.574,81.059l11.41,11.341l-11.41,11.338
		l-81.574,81.062v114.635v16.036h-16.135h-115.363l-81.572,81.059l-11.413,11.341l-11.41-11.341l-81.574-81.059h-115.361h-16.138
		v-16.036v-114.635l-81.572-81.062l-11.413-11.338l11.413-11.341l81.572-81.059V3092.43v-16.036h16.138h115.361l81.574-81.059
		l11.41-11.338L5575.226,2995.335z M5861.913,329.226l-75.404,73.934l74.434,74.961l4.641,4.681l-0.039,6.594l-0.703,105.356
		l105.934,0.699l6.72,0.038l4.684,4.72l74.402,74.93l75.436-73.966l4.705-4.618l6.642,0.043l106.023,0.699l0.703-105.266
		l0.039-6.677l4.75-4.657l75.404-73.934l-74.434-74.959l-4.647-4.677l0.046-6.598l0.703-105.356l-105.934-0.699l-6.725-0.038
		l-4.682-4.722l-74.399-74.927l-75.435,73.965l-4.711,4.618l-6.635-0.045l-106.023-0.699l-0.703,105.268l-0.046,6.682
		L5861.913,329.226z M5752.474,391.609l82.128-80.527l0.767-114.597l0.105-16.011l16.032,0.104l115.414,0.762l82.161-80.559
		l11.431-11.212l11.321,11.397l81.037,81.611l115.322,0.763l16.112,0.111l-0.105,15.925l-0.767,114.688l81.069,81.645l11.282,11.364
		l-11.469,11.245l-82.128,80.527l-0.767,114.597l-0.112,16.008l-16.025-0.102l-115.414-0.763l-82.161,80.559l-11.438,11.212
		l-11.314-11.397l-81.037-81.611l-115.322-0.765l-16.117-0.109l0.109-15.925l0.768-114.69l-81.069-81.643l-11.29-11.359
		L5752.474,391.609z M6133.281,844.013l-74.886-74.414l-74.887,74.414l-4.725,4.695h-6.686h-105.914v105.248v6.643l-4.725,4.695
		l-74.885,74.416l74.885,74.414l4.725,4.695v6.645v105.248h105.914h6.686l4.725,4.695l74.887,74.414l74.886-74.414l4.725-4.695
		h6.686h105.914v-105.248v-6.645l4.725-4.695l74.885-74.414l-74.885-74.416l-4.725-4.695v-6.643V848.707h-105.914h-6.686
		L6133.281,844.013z M6069.807,735.579l81.572,81.059h115.363h16.135v16.034V947.31l81.572,81.059l11.413,11.34l-11.413,11.341
		l-81.572,81.059v114.635v16.036h-16.135h-115.363l-81.572,81.059l-11.412,11.341l-11.413-11.341l-81.572-81.059h-115.363h-16.135
		v-16.036v-114.635l-81.572-81.059l-11.413-11.341l11.413-11.34l81.572-81.059V832.672v-16.034h16.135h115.363l81.572-81.059
		l11.413-11.341L6069.807,735.579z M5861.913,1619.033l-75.404,73.934l74.434,74.959l4.641,4.677l-0.039,6.6l-0.703,105.354
		l105.934,0.699l6.72,0.039l4.684,4.722l74.402,74.927l75.436-73.966l4.705-4.618l6.642,0.045l106.023,0.699l0.703-105.266
		l0.039-6.684l4.75-4.65l75.404-73.934l-74.434-74.961l-4.647-4.682l0.046-6.594l0.703-105.356l-105.934-0.699l-6.725-0.045
		l-4.682-4.713l-74.399-74.927l-75.435,73.966l-4.711,4.611l-6.635-0.038l-106.023-0.699l-0.703,105.266l-0.046,6.677
		L5861.913,1619.033z M5752.474,1681.416l82.128-80.528l0.767-114.599l0.105-16.016l16.032,0.109l115.414,0.762l82.161-80.559
		l11.431-11.218l11.321,11.404l81.037,81.611l115.322,0.765l16.112,0.102l-0.105,15.932l-0.767,114.69l81.069,81.643l11.282,11.359
		l-11.469,11.25l-82.128,80.527l-0.767,114.599l-0.112,16.009l-16.025-0.102l-115.414-0.765l-82.161,80.559l-11.438,11.212
		l-11.314-11.397l-81.037-81.611l-115.322-0.762l-16.117-0.109l0.109-15.927l0.768-114.688l-81.069-81.643l-11.29-11.366
		L5752.474,1681.416z M6133.281,2133.816l-74.886-74.413l-74.887,74.413l-4.725,4.695h-6.686h-105.914v105.248v6.646l-4.725,4.695
		l-74.885,74.414l74.885,74.416l4.725,4.695v6.646v105.245h105.914h6.686l4.725,4.695l74.887,74.416l74.886-74.416l4.725-4.695
		h6.686h105.914V2415.27v-6.646l4.725-4.695l74.885-74.416l-74.885-74.414l-4.725-4.695v-6.646v-105.248h-105.914h-6.686
		L6133.281,2133.816z M6069.807,2025.383l81.572,81.059h115.363h16.135v16.036v114.635l81.572,81.062l11.413,11.339l-11.413,11.341
		l-81.572,81.059v114.638v16.033h-16.135h-115.363l-81.572,81.062l-11.412,11.338l-11.413-11.338l-81.572-81.062h-115.363h-16.135
		v-16.033v-114.638l-81.572-81.059l-11.413-11.341l11.413-11.339l81.572-81.062v-114.635v-16.036h16.135h115.363l81.572-81.059
		l11.413-11.341L6069.807,2025.383z M5861.913,2908.837l-75.404,73.934l74.434,74.961l4.641,4.675l-0.039,6.6l-0.703,105.356
		l105.934,0.699l6.72,0.039l4.684,4.72l74.402,74.927l75.436-73.966l4.705-4.618l6.642,0.045l106.023,0.699l0.703-105.266
		l0.039-6.684l4.75-4.65l75.404-73.934l-74.434-74.959l-4.647-4.684l0.046-6.594l0.703-105.354l-105.934-0.699l-6.725-0.045
		l-4.682-4.716l-74.399-74.927l-75.435,73.966l-4.711,4.612l-6.635-0.039l-106.023-0.699l-0.703,105.266l-0.046,6.677
		L5861.913,2908.837z M5752.474,2971.219l82.128-80.528l0.767-114.599l0.105-16.015l16.032,0.108l115.414,0.765l82.161-80.559
		l11.431-11.219l11.321,11.404l81.037,81.611l115.322,0.762l16.112,0.104l-0.105,15.932l-0.767,114.688l81.069,81.643l11.282,11.359
		l-11.469,11.25l-82.128,80.527l-0.767,114.599l-0.112,16.009l-16.025-0.102l-115.414-0.762l-82.161,80.559l-11.438,11.212
		l-11.314-11.397l-81.037-81.611l-115.322-0.765l-16.117-0.109l0.109-15.925l0.768-114.69l-81.069-81.643l-11.29-11.365
		L5752.474,2971.219z M6133.281,3423.623l-74.886-74.416l-74.887,74.416l-4.725,4.695h-6.686h-105.914v105.248v6.643l-4.725,4.695
		l-74.885,74.416l74.885,74.414l4.725,4.695v6.646v105.248h105.914h6.686l4.725,4.695l74.887,74.414l74.886-74.414l4.725-4.695
		h6.686h105.914v-105.248v-6.646l4.725-4.695l74.885-74.414l-74.885-74.416l-4.725-4.695v-6.643v-105.248h-105.914h-6.686
		L6133.281,3423.623z M6069.807,3315.187l81.572,81.062h115.363h16.135v16.033v114.638l81.572,81.059l11.413,11.341l-11.413,11.338
		l-81.572,81.062v114.635v16.036h-16.135h-115.363l-81.572,81.059l-11.412,11.341l-11.413-11.341l-81.572-81.059h-115.363h-16.135
		v-16.036V3711.72l-81.572-81.062l-11.413-11.338l11.413-11.341l81.572-81.059v-114.638v-16.033h16.135h115.363l81.572-81.062
		l11.413-11.338L6069.807,3315.187z M6633.644,524.161l-74.884-74.416l-74.887,74.416l-4.725,4.695h-6.688h-105.912v105.247v6.643
		l-4.725,4.695l-74.886,74.416l74.886,74.414l4.725,4.695v6.645V910.86h105.912h6.688l4.725,4.695l74.887,74.414l74.884-74.414
		l4.725-4.695h6.688h105.912V805.612v-6.645l4.725-4.695l74.887-74.414l-74.887-74.416l-4.725-4.695v-6.643V528.856h-105.912h-6.688
		L6633.644,524.161z M6570.169,415.725l81.572,81.061h115.363h16.137v16.034v114.638l81.572,81.059l11.412,11.341l-11.412,11.338
		l-81.572,81.061v114.635v16.036h-16.137h-115.363l-81.572,81.059l-11.41,11.341l-11.412-11.341l-81.572-81.059h-115.363h-16.137
		v-16.036V812.258l-81.572-81.061l-11.41-11.338l11.41-11.341l81.572-81.059V512.82v-16.034h16.137h115.363l81.572-81.061
		l11.412-11.338L6570.169,415.725z M6362.275,1299.181l-75.401,73.934l74.434,74.959l4.64,4.677l-0.038,6.598l-0.704,105.356
		l105.932,0.699l6.72,0.039l4.687,4.722l74.401,74.927l75.436-73.966l4.704-4.618l6.643,0.045l106.022,0.699l0.704-105.266
		l0.038-6.684l4.75-4.65l75.401-73.934l-74.434-74.961l-4.647-4.682l0.046-6.593l0.703-105.356l-105.932-0.699l-6.726-0.045
		l-4.68-4.713l-74.402-74.93l-75.434,73.968l-4.713,4.611l-6.635-0.038l-106.023-0.699l-0.704,105.266l-0.043,6.677
		L6362.275,1299.181z M6252.839,1361.561l82.127-80.527l0.767-114.597l0.103-16.015l16.035,0.109l115.413,0.763l82.16-80.559
		l11.43-11.219l11.321,11.404l81.037,81.611l115.324,0.765l16.11,0.102l-0.103,15.932l-0.77,114.69l81.071,81.643l11.283,11.359
		l-11.472,11.25l-82.128,80.528l-0.767,114.599l-0.109,16.009l-16.028-0.104l-115.413-0.763l-82.16,80.559l-11.438,11.212
		l-11.314-11.397l-81.037-81.611l-115.325-0.763l-16.117-0.109l0.109-15.927l0.77-114.688l-81.071-81.643l-11.287-11.365
		L6252.839,1361.561z M6633.644,1813.965l-74.884-74.414l-74.887,74.414l-4.725,4.695h-6.688h-105.912v105.247v6.646l-4.725,4.695
		l-74.886,74.414l74.886,74.416l4.725,4.695v6.644v105.248h105.912h6.688l4.725,4.695l74.887,74.416l74.884-74.416l4.725-4.695
		h6.688h105.912v-105.248v-6.644l4.725-4.695l74.887-74.416l-74.887-74.414l-4.725-4.695v-6.646V1818.66h-105.912h-6.688
		L6633.644,1813.965z M6570.169,1705.531l81.572,81.059h115.363h16.137v16.036v114.635l81.572,81.062l11.412,11.338l-11.412,11.341
		l-81.572,81.059v114.638v16.033h-16.137h-115.363l-81.572,81.062l-11.41,11.338l-11.412-11.338l-81.572-81.062h-115.363h-16.137
		v-16.033v-114.638l-81.572-81.059l-11.41-11.341l11.41-11.338l81.572-81.062v-114.635v-16.036h16.137h115.363l81.572-81.059
		l11.412-11.341L6570.169,1705.531z M6362.275,2588.985l-75.401,73.934l74.434,74.961l4.64,4.675l-0.038,6.601l-0.704,105.356
		l105.932,0.699l6.72,0.039l4.687,4.72l74.401,74.927l75.436-73.966l4.704-4.618l6.643,0.045l106.022,0.699l0.704-105.266
		l0.038-6.684l4.75-4.65l75.401-73.934l-74.434-74.959l-4.647-4.684l0.046-6.594l0.703-105.356l-105.932-0.699l-6.726-0.043
		l-4.68-4.716l-74.402-74.927l-75.434,73.966l-4.713,4.611l-6.635-0.038l-106.023-0.699l-0.704,105.266l-0.043,6.677
		L6362.275,2588.985z M6252.839,2651.368l82.127-80.528l0.767-114.599l0.103-16.016l16.035,0.109l115.413,0.765l82.16-80.559
		l11.43-11.219l11.321,11.404l81.037,81.611l115.324,0.762l16.11,0.102l-0.103,15.934l-0.77,114.688l81.071,81.643l11.283,11.359
		l-11.472,11.25l-82.128,80.528l-0.767,114.599l-0.109,16.009l-16.028-0.102l-115.413-0.762l-82.16,80.559l-11.438,11.212
		l-11.314-11.399l-81.037-81.611l-115.325-0.763l-16.117-0.108l0.109-15.927l0.77-114.688l-81.071-81.643l-11.287-11.366
		L6252.839,2651.368z M6633.644,3103.771l-74.884-74.416l-74.887,74.416l-4.725,4.695h-6.688h-105.912v105.245v6.646l-4.725,4.695
		l-74.886,74.416l74.886,74.414l4.725,4.695v6.646v105.248h105.912h6.688l4.725,4.695l74.887,74.414l74.884-74.414l4.725-4.695
		h6.688h105.912v-105.248v-6.646l4.725-4.695l74.887-74.414l-74.887-74.416l-4.725-4.695v-6.646v-105.245h-105.912h-6.688
		L6633.644,3103.771z M6570.169,2995.335l81.572,81.059h115.363h16.137v16.036v114.638l81.572,81.059l11.412,11.341l-11.412,11.338
		l-81.572,81.062v114.635v16.036h-16.137h-115.363l-81.572,81.059l-11.41,11.341l-11.412-11.341l-81.572-81.059h-115.363h-16.137
		v-16.036v-114.635l-81.572-81.062l-11.41-11.338l11.41-11.341l81.572-81.059V3092.43v-16.036h16.137h115.363l81.572-81.059
		l11.412-11.338L6570.169,2995.335z M6856.855,329.226l-75.401,73.934l74.434,74.961l4.641,4.681l-0.039,6.594l-0.704,105.356
		l105.932,0.699l6.72,0.038l4.686,4.72l74.402,74.93l75.433-73.966l4.707-4.618l6.642,0.043l106.021,0.699l0.704-105.266
		l0.038-6.677l4.752-4.657l75.401-73.934l-74.433-74.959l-4.647-4.677l0.045-6.598l0.704-105.356l-105.932-0.699l-6.727-0.038
		l-4.679-4.722l-74.401-74.927l-75.436,73.965l-4.711,4.618l-6.636-0.045l-106.022-0.699l-0.704,105.268l-0.045,6.682
		L6856.855,329.226z M6747.418,391.609l82.127-80.527l0.77-114.597l0.102-16.011l16.033,0.104l115.416,0.762l82.16-80.559
		l11.431-11.212l11.322,11.397l81.037,81.611l115.324,0.763l16.11,0.111l-0.103,15.925l-0.77,114.688l81.069,81.645l11.283,11.364
		l-11.47,11.245l-82.127,80.527l-0.768,114.597l-0.109,16.008l-16.028-0.102l-115.413-0.763l-82.16,80.559l-11.438,11.212
		l-11.314-11.397l-81.037-81.611l-115.325-0.765l-16.117-0.109l0.11-15.925l0.767-114.69l-81.069-81.643l-11.29-11.359
		L6747.418,391.609z M7128.225,844.013l-74.887-74.414l-74.884,74.414l-4.725,4.695h-6.688h-105.914v105.248v6.643l-4.725,4.695
		l-74.885,74.416l74.885,74.414l4.725,4.695v6.645v105.248h105.914h6.688l4.725,4.695l74.884,74.414l74.887-74.414l4.725-4.695
		h6.685h105.914v-105.248v-6.645l4.725-4.695l74.886-74.414l-74.886-74.416l-4.725-4.695v-6.643V848.707h-105.914h-6.685
		L7128.225,844.013z M7064.75,735.579l81.572,81.059h115.363h16.135v16.034V947.31l81.574,81.059l11.41,11.34l-11.41,11.341
		l-81.574,81.059v114.635v16.036h-16.135h-115.363l-81.572,81.059l-11.413,11.341l-11.41-11.341l-81.574-81.059h-115.361h-16.138
		v-16.036v-114.635l-81.572-81.059l-11.413-11.341l11.413-11.34l81.572-81.059V832.672v-16.034h16.138h115.361l81.574-81.059
		l11.41-11.341L7064.75,735.579z M6856.855,1619.033l-75.401,73.934l74.434,74.959l4.641,4.677l-0.039,6.6l-0.704,105.354
		l105.932,0.699l6.72,0.039l4.686,4.722l74.402,74.927l75.433-73.966l4.707-4.618l6.642,0.045l106.021,0.699l0.704-105.266
		l0.038-6.684l4.752-4.65l75.401-73.934l-74.433-74.961l-4.647-4.682l0.045-6.594l0.704-105.356l-105.932-0.699l-6.727-0.045
		l-4.679-4.713l-74.401-74.927l-75.436,73.966l-4.711,4.611l-6.636-0.038l-106.022-0.699l-0.704,105.266l-0.045,6.677
		L6856.855,1619.033z M6747.418,1681.416l82.127-80.528l0.77-114.599l0.102-16.016l16.033,0.109l115.416,0.762l82.16-80.559
		l11.431-11.218l11.322,11.404l81.037,81.611l115.324,0.765l16.11,0.102l-0.103,15.932l-0.77,114.69l81.069,81.643l11.283,11.359
		l-11.47,11.25l-82.127,80.527l-0.768,114.599l-0.109,16.009l-16.028-0.102l-115.413-0.765l-82.16,80.559l-11.438,11.212
		l-11.314-11.397l-81.037-81.611l-115.325-0.762l-16.117-0.109l0.11-15.927l0.767-114.688l-81.069-81.643l-11.29-11.366
		L6747.418,1681.416z M7128.225,2133.816l-74.887-74.413l-74.884,74.413l-4.725,4.695h-6.688h-105.914v105.248v6.646l-4.725,4.695
		l-74.885,74.414l74.885,74.416l4.725,4.695v6.646v105.245h105.914h6.688l4.725,4.695l74.884,74.416l74.887-74.416l4.725-4.695
		h6.685h105.914V2415.27v-6.646l4.725-4.695l74.886-74.416l-74.886-74.414l-4.725-4.695v-6.646v-105.248h-105.914h-6.685
		L7128.225,2133.816z M7064.75,2025.383l81.572,81.059h115.363h16.135v16.036v114.635l81.574,81.062l11.41,11.339l-11.41,11.341
		l-81.574,81.059v114.638v16.033h-16.135h-115.363l-81.572,81.062l-11.413,11.338l-11.41-11.338l-81.574-81.062h-115.361h-16.138
		v-16.033v-114.638l-81.572-81.059l-11.413-11.341l11.413-11.339l81.572-81.062v-114.635v-16.036h16.138h115.361l81.574-81.059
		l11.41-11.341L7064.75,2025.383z M6856.855,2908.837l-75.401,73.934l74.434,74.961l4.641,4.675l-0.039,6.6l-0.704,105.356
		l105.932,0.699l6.72,0.039l4.686,4.72l74.402,74.927l75.433-73.966l4.707-4.618l6.642,0.045l106.021,0.699l0.704-105.266
		l0.038-6.684l4.752-4.65l75.401-73.934l-74.433-74.959l-4.647-4.684l0.045-6.594l0.704-105.354l-105.932-0.699l-6.727-0.045
		l-4.679-4.716l-74.401-74.927l-75.436,73.966l-4.711,4.612l-6.636-0.039l-106.022-0.699l-0.704,105.266l-0.045,6.677
		L6856.855,2908.837z M6747.418,2971.219l82.127-80.528l0.77-114.599l0.102-16.015l16.033,0.108l115.416,0.765l82.16-80.559
		l11.431-11.219l11.322,11.404l81.037,81.611l115.324,0.762l16.11,0.104l-0.103,15.932l-0.77,114.688l81.069,81.643l11.283,11.359
		l-11.47,11.25l-82.127,80.527l-0.768,114.599l-0.109,16.009l-16.028-0.102l-115.413-0.762l-82.16,80.559l-11.438,11.212
		l-11.314-11.397l-81.037-81.611l-115.325-0.765l-16.117-0.109l0.11-15.925l0.767-114.69l-81.069-81.643l-11.29-11.365
		L6747.418,2971.219z M7128.225,3423.623l-74.887-74.416l-74.884,74.416l-4.725,4.695h-6.688h-105.914v105.248v6.643l-4.725,4.695
		l-74.885,74.416l74.885,74.414l4.725,4.695v6.646v105.248h105.914h6.688l4.725,4.695l74.884,74.414l74.887-74.414l4.725-4.695
		h6.685h105.914v-105.248v-6.646l4.725-4.695l74.886-74.414l-74.886-74.416l-4.725-4.695v-6.643v-105.248h-105.914h-6.685
		L7128.225,3423.623z M7064.75,3315.187l81.572,81.062h115.363h16.135v16.033v114.638l81.574,81.059l11.41,11.341l-11.41,11.338
		l-81.574,81.062v114.635v16.036h-16.135h-115.363l-81.572,81.059l-11.413,11.341l-11.41-11.341l-81.574-81.059h-115.361h-16.138
		v-16.036V3711.72l-81.572-81.062l-11.413-11.338l11.413-11.341l81.572-81.059v-114.638v-16.033h16.138h115.361l81.574-81.062
		l11.41-11.338L7064.75,3315.187z M7628.587,524.161l-74.885-74.416l-74.887,74.416l-4.725,4.695h-6.686h-105.914v105.247v6.643
		l-4.725,4.695l-74.887,74.416l74.887,74.414l4.725,4.695v6.645V910.86h105.914h6.686l4.725,4.695l74.887,74.414l74.885-74.414
		l4.725-4.695H7640h105.913V805.612v-6.645l4.725-4.695l74.885-74.414l-74.885-74.416l-4.725-4.695v-6.643V528.856H7640h-6.688
		L7628.587,524.161z M7565.115,415.725l81.572,81.061h115.36h16.138v16.034v114.638l81.572,81.059l11.413,11.341l-11.413,11.338
		l-81.572,81.061v114.635v16.036h-16.138h-115.36l-81.572,81.059l-11.413,11.341l-11.413-11.341l-81.572-81.059h-115.363h-16.135
		v-16.036V812.258l-81.575-81.061l-11.41-11.338l11.41-11.341l81.575-81.059V512.82v-16.034h16.135h115.363l81.572-81.061
		l11.413-11.338L7565.115,415.725z M7357.218,1299.181l-75.401,73.934l74.434,74.959l4.64,4.677l-0.039,6.598l-0.704,105.356
		l105.934,0.699l6.717,0.039l4.686,4.722l74.402,74.927l75.436-73.966l4.704-4.618l6.642,0.045l106.023,0.699l0.704-105.266
		l0.039-6.684l4.75-4.65l75.404-73.934l-74.436-74.961l-4.646-4.682l0.043-6.593l0.704-105.356l-105.932-0.699l-6.727-0.045
		l-4.679-4.713l-74.401-74.93l-75.434,73.968l-4.711,4.611l-6.635-0.038l-106.023-0.699l-0.703,105.266l-0.046,6.677
		L7357.218,1299.181z M7247.782,1361.561l82.128-80.527l0.767-114.597l0.105-16.015l16.033,0.109l115.413,0.763l82.159-80.559
		l11.433-11.219l11.321,11.404l81.037,81.611l115.322,0.765l16.11,0.102l-0.103,15.932l-0.767,114.69l81.068,81.643l11.283,11.359
		l-11.469,11.25l-82.128,80.528l-0.77,114.599l-0.11,16.009l-16.025-0.104l-115.416-0.763l-82.159,80.559l-11.438,11.212
		l-11.314-11.397l-81.037-81.611l-115.322-0.763l-16.12-0.109l0.112-15.927l0.767-114.688l-81.069-81.643l-11.289-11.365
		L7247.782,1361.561z M7628.587,1813.965l-74.885-74.414l-74.887,74.414l-4.725,4.695h-6.686h-105.914v105.247v6.646l-4.725,4.695
		l-74.887,74.414l74.887,74.416l4.725,4.695v6.644v105.248h105.914h6.686l4.725,4.695l74.887,74.416l74.885-74.416l4.725-4.695H7640
		h105.913v-105.248v-6.644l4.725-4.695l74.885-74.416l-74.885-74.414l-4.725-4.695v-6.646V1818.66H7640h-6.688L7628.587,1813.965z
		 M7565.115,1705.531l81.572,81.059h115.36h16.138v16.036v114.635l81.572,81.062l11.413,11.338l-11.413,11.341l-81.572,81.059
		v114.638v16.033h-16.138h-115.36l-81.572,81.062l-11.413,11.338l-11.413-11.338l-81.572-81.062h-115.363h-16.135v-16.033v-114.638
		l-81.575-81.059l-11.41-11.341l11.41-11.338l81.575-81.062v-114.635v-16.036h16.135h115.363l81.572-81.059l11.413-11.341
		L7565.115,1705.531z M7357.218,2588.985l-75.401,73.934l74.434,74.961l4.64,4.675l-0.039,6.601l-0.704,105.356l105.934,0.699
		l6.717,0.039l4.686,4.72l74.402,74.927l75.436-73.966l4.704-4.618l6.642,0.045l106.023,0.699l0.704-105.266l0.039-6.684l4.75-4.65
		l75.404-73.934l-74.436-74.959l-4.646-4.684l0.043-6.594l0.704-105.356l-105.932-0.699l-6.727-0.043l-4.679-4.716l-74.401-74.927
		l-75.434,73.966l-4.711,4.611l-6.635-0.038l-106.023-0.699l-0.703,105.266l-0.046,6.677L7357.218,2588.985z M7247.782,2651.368
		l82.128-80.528l0.767-114.599l0.105-16.016l16.033,0.109l115.413,0.765l82.159-80.559l11.433-11.219l11.321,11.404l81.037,81.611
		l115.322,0.762l16.11,0.102l-0.103,15.934l-0.767,114.688l81.068,81.643l11.283,11.359l-11.469,11.25l-82.128,80.528l-0.77,114.599
		l-0.11,16.009l-16.025-0.102l-115.416-0.762l-82.159,80.559l-11.438,11.212l-11.314-11.399l-81.037-81.611l-115.322-0.763
		l-16.12-0.108l0.112-15.927l0.767-114.688l-81.069-81.643l-11.289-11.366L7247.782,2651.368z M7628.587,3103.771l-74.885-74.416
		l-74.887,74.416l-4.725,4.695h-6.686h-105.914v105.245v6.646l-4.725,4.695l-74.887,74.416l74.887,74.414l4.725,4.695v6.646v105.248
		h105.914h6.686l4.725,4.695l74.887,74.414l74.885-74.414l4.725-4.695H7640h105.913v-105.248v-6.646l4.725-4.695l74.885-74.414
		l-74.885-74.416l-4.725-4.695v-6.646v-105.245H7640h-6.688L7628.587,3103.771z M7565.115,2995.335l81.572,81.059h115.36h16.138
		v16.036v114.638l81.572,81.059l11.413,11.341l-11.413,11.338l-81.572,81.062v114.635v16.036h-16.138h-115.36l-81.572,81.059
		l-11.413,11.341l-11.413-11.341l-81.572-81.059h-115.363h-16.135v-16.036v-114.635l-81.575-81.062l-11.41-11.338l11.41-11.341
		l81.575-81.059V3092.43v-16.036h16.135h115.363l81.572-81.059l11.413-11.338L7565.115,2995.335z M7869.665,329.226l-75.401,73.934
		l74.434,74.961l4.641,4.681l-0.039,6.594l-0.703,105.356l105.934,0.699l6.717,0.038l4.686,4.72l74.402,74.93l75.436-73.966
		l4.705-4.618l6.642,0.043l106.023,0.699l0.703-105.266l0.039-6.677l4.749-4.657l75.404-73.934l-74.434-74.959l-4.647-4.677
		l0.044-6.598l0.703-105.356l-105.932-0.699l-6.727-0.038l-4.68-4.722l-74.401-74.927l-75.433,73.965l-4.711,4.618l-6.635-0.045
		l-106.023-0.699l-0.703,105.268l-0.046,6.682L7869.665,329.226z M7760.229,391.609l82.128-80.527l0.767-114.597l0.105-16.011
		l16.032,0.104l115.414,0.762l82.159-80.559l11.433-11.212l11.321,11.397l81.037,81.611l115.322,0.763l16.11,0.111l-0.103,15.925
		l-0.768,114.688l81.069,81.645l11.282,11.364l-11.469,11.245l-82.128,80.527l-0.77,114.597l-0.11,16.008l-16.025-0.102
		l-115.415-0.763l-82.16,80.559l-11.438,11.212l-11.314-11.397l-81.037-81.611l-115.322-0.765l-16.119-0.109l0.111-15.925
		l0.767-114.69l-81.069-81.643l-11.29-11.359L7760.229,391.609z M8141.034,844.013l-74.884-74.414l-74.887,74.414l-4.725,4.695
		h-6.686h-105.914v105.248v6.643l-4.725,4.695l-74.887,74.416l74.887,74.414l4.725,4.695v6.645v105.248h105.914h6.686l4.725,4.695
		l74.887,74.414l74.884-74.414l4.725-4.695h6.688h105.913v-105.248v-6.645l4.725-4.695l74.886-74.414l-74.886-74.416l-4.725-4.695
		v-6.643V848.707h-105.913h-6.688L8141.034,844.013z M8077.562,735.579l81.572,81.059h115.36h16.138v16.034V947.31l81.572,81.059
		l11.413,11.34l-11.413,11.341l-81.572,81.059v114.635v16.036h-16.138h-115.36l-81.572,81.059l-11.412,11.341l-11.413-11.341
		l-81.572-81.059h-115.363h-16.135v-16.036v-114.635l-81.574-81.059l-11.41-11.341l11.41-11.34l81.574-81.059V832.672v-16.034
		h16.135h115.363l81.572-81.059l11.413-11.341L8077.562,735.579z M7869.665,1619.033l-75.401,73.934l74.434,74.959l4.641,4.677
		l-0.039,6.6l-0.703,105.354l105.934,0.699l6.717,0.039l4.686,4.722l74.402,74.927l75.436-73.966l4.705-4.618l6.642,0.045
		l106.023,0.699l0.703-105.266l0.039-6.684l4.749-4.65l75.404-73.934l-74.434-74.961l-4.647-4.682l0.044-6.594l0.703-105.356
		l-105.932-0.699l-6.727-0.045l-4.68-4.713l-74.401-74.927l-75.433,73.966l-4.711,4.611l-6.635-0.038l-106.023-0.699l-0.703,105.266
		l-0.046,6.677L7869.665,1619.033z M7760.229,1681.416l82.128-80.528l0.767-114.599l0.105-16.016l16.032,0.109l115.414,0.762
		l82.159-80.559l11.433-11.218l11.321,11.404l81.037,81.611l115.322,0.765l16.11,0.102l-0.103,15.932l-0.768,114.69l81.069,81.643
		l11.282,11.359l-11.469,11.25l-82.128,80.527l-0.77,114.599l-0.11,16.009l-16.025-0.102l-115.415-0.765l-82.16,80.559
		l-11.438,11.212l-11.314-11.397l-81.037-81.611l-115.322-0.762l-16.119-0.109l0.111-15.927l0.767-114.688l-81.069-81.643
		l-11.29-11.366L7760.229,1681.416z M8141.034,2133.816l-74.884-74.413l-74.887,74.413l-4.725,4.695h-6.686h-105.914v105.248v6.646
		l-4.725,4.695l-74.887,74.414l74.887,74.416l4.725,4.695v6.646v105.245h105.914h6.686l4.725,4.695l74.887,74.416l74.884-74.416
		l4.725-4.695h6.688h105.913V2415.27v-6.646l4.725-4.695l74.886-74.416l-74.886-74.414l-4.725-4.695v-6.646v-105.248h-105.913
		h-6.688L8141.034,2133.816z M8077.562,2025.383l81.572,81.059h115.36h16.138v16.036v114.635l81.572,81.062l11.413,11.339
		l-11.413,11.341l-81.572,81.059v114.638v16.033h-16.138h-115.36l-81.572,81.062l-11.412,11.338l-11.413-11.338l-81.572-81.062
		h-115.363h-16.135v-16.033v-114.638l-81.574-81.059l-11.41-11.341l11.41-11.339l81.574-81.062v-114.635v-16.036h16.135h115.363
		l81.572-81.059l11.413-11.341L8077.562,2025.383z M7869.665,2908.837l-75.401,73.934l74.434,74.961l4.641,4.675l-0.039,6.6
		l-0.703,105.356l105.934,0.699l6.717,0.039l4.686,4.72l74.402,74.927l75.436-73.966l4.705-4.618l6.642,0.045l106.023,0.699
		l0.703-105.266l0.039-6.684l4.749-4.65l75.404-73.934l-74.434-74.959l-4.647-4.684l0.044-6.594l0.703-105.354l-105.932-0.699
		l-6.727-0.045l-4.68-4.716l-74.401-74.927l-75.433,73.966l-4.711,4.612l-6.635-0.039l-106.023-0.699l-0.703,105.266l-0.046,6.677
		L7869.665,2908.837z M7760.229,2971.219l82.128-80.528l0.767-114.599l0.105-16.015l16.032,0.108l115.414,0.765l82.159-80.559
		l11.433-11.219l11.321,11.404l81.037,81.611l115.322,0.762l16.11,0.104l-0.103,15.932l-0.768,114.688l81.069,81.643l11.282,11.359
		l-11.469,11.25l-82.128,80.527l-0.77,114.599l-0.11,16.009l-16.025-0.102l-115.415-0.762l-82.16,80.559l-11.438,11.212
		l-11.314-11.397l-81.037-81.611l-115.322-0.765l-16.119-0.109l0.111-15.925l0.767-114.69l-81.069-81.643l-11.29-11.365
		L7760.229,2971.219z M8141.034,3423.623l-74.884-74.416l-74.887,74.416l-4.725,4.695h-6.686h-105.914v105.248v6.643l-4.725,4.695
		l-74.887,74.416l74.887,74.414l4.725,4.695v6.646v105.248h105.914h6.686l4.725,4.695l74.887,74.414l74.884-74.414l4.725-4.695
		h6.688h105.913v-105.248v-6.646l4.725-4.695l74.886-74.414l-74.886-74.416l-4.725-4.695v-6.643v-105.248h-105.913h-6.688
		L8141.034,3423.623z M8077.562,3315.187l81.572,81.062h115.36h16.138v16.033v114.638l81.572,81.059l11.413,11.341l-11.413,11.338
		l-81.572,81.062v114.635v16.036h-16.138h-115.36l-81.572,81.059l-11.412,11.341l-11.413-11.341l-81.572-81.059h-115.363h-16.135
		v-16.036V3711.72l-81.574-81.062l-11.41-11.338l11.41-11.341l81.574-81.059v-114.638v-16.033h16.135h115.363l81.572-81.062
		l11.413-11.338L8077.562,3315.187z M8641.398,524.161l-74.887-74.416l-74.884,74.416l-4.726,4.695h-6.688h-105.911v105.247v6.643
		l-4.725,4.695l-74.887,74.416l74.887,74.414l4.725,4.695v6.645V910.86h105.911h6.688l4.726,4.695l74.884,74.414l74.887-74.414
		l4.725-4.695h6.688h105.911V805.612v-6.645l4.726-4.695l74.887-74.414l-74.887-74.416l-4.726-4.695v-6.643V528.856h-105.911h-6.688
		L8641.398,524.161z M8577.924,415.725l81.572,81.061h115.363h16.138v16.034v114.638l81.572,81.059l11.41,11.341l-11.41,11.338
		l-81.572,81.061v114.635v16.036h-16.138h-115.363l-81.572,81.059l-11.412,11.341l-11.41-11.341l-81.571-81.059h-115.364h-16.137
		v-16.036V812.258l-81.572-81.061l-11.412-11.338l11.412-11.341l81.572-81.059V512.82v-16.034h16.137h115.364l81.571-81.061
		l11.41-11.338L8577.924,415.725z M8370.029,1299.181l-75.401,73.934l74.434,74.959l4.641,4.677l-0.038,6.598l-0.704,105.356
		l105.932,0.699l6.72,0.039l4.687,4.722l74.401,74.927l75.434-73.966l4.706-4.618l6.643,0.045l106.022,0.699l0.704-105.266
		l0.038-6.684l4.75-4.65l75.401-73.934l-74.434-74.961l-4.647-4.682l0.046-6.593l0.704-105.356l-105.933-0.699l-6.726-0.045
		l-4.68-4.713l-74.402-74.93l-75.436,73.968l-4.711,4.611l-6.635-0.038l-106.022-0.699l-0.704,105.266l-0.046,6.677
		L8370.029,1299.181z M8260.594,1361.561l82.128-80.527l0.767-114.597l0.103-16.015l16.035,0.109l115.413,0.763l82.16-80.559
		l11.431-11.219l11.32,11.404l81.037,81.611l115.324,0.765l16.11,0.102l-0.103,15.932l-0.769,114.69l81.07,81.643l11.28,11.359
		l-11.469,11.25l-82.128,80.528l-0.768,114.599l-0.109,16.009l-16.028-0.104l-115.412-0.763l-82.16,80.559l-11.438,11.212
		l-11.314-11.397l-81.037-81.611l-115.324-0.763l-16.117-0.109l0.109-15.927l0.77-114.688l-81.07-81.643l-11.287-11.365
		L8260.594,1361.561z M8641.398,1813.965l-74.887-74.414l-74.884,74.414l-4.726,4.695h-6.688h-105.911v105.247v6.646l-4.725,4.695
		l-74.887,74.414l74.887,74.416l4.725,4.695v6.644v105.248h105.911h6.688l4.726,4.695l74.884,74.416l74.887-74.416l4.725-4.695
		h6.688h105.911v-105.248v-6.644l4.726-4.695l74.887-74.416l-74.887-74.414l-4.726-4.695v-6.646V1818.66h-105.911h-6.688
		L8641.398,1813.965z M8577.924,1705.531l81.572,81.059h115.363h16.138v16.036v114.635l81.572,81.062l11.41,11.338l-11.41,11.341
		l-81.572,81.059v114.638v16.033h-16.138h-115.363l-81.572,81.062l-11.412,11.338l-11.41-11.338l-81.571-81.062h-115.364h-16.137
		v-16.033v-114.638l-81.572-81.059l-11.412-11.341l11.412-11.338l81.572-81.062v-114.635v-16.036h16.137h115.364l81.571-81.059
		l11.41-11.341L8577.924,1705.531z M8370.029,2588.985l-75.401,73.934l74.434,74.961l4.641,4.675l-0.038,6.601l-0.704,105.356
		l105.932,0.699l6.72,0.039l4.687,4.72l74.401,74.927l75.434-73.966l4.706-4.618l6.643,0.045l106.022,0.699l0.704-105.266
		l0.038-6.684l4.75-4.65l75.401-73.934l-74.434-74.959l-4.647-4.684l0.046-6.594l0.704-105.356l-105.933-0.699l-6.726-0.043
		l-4.68-4.716l-74.402-74.927l-75.436,73.966l-4.711,4.611l-6.635-0.038l-106.022-0.699l-0.704,105.266l-0.046,6.677
		L8370.029,2588.985z M8260.594,2651.368l82.128-80.528l0.767-114.599l0.103-16.016l16.035,0.109l115.413,0.765l82.16-80.559
		l11.431-11.219l11.32,11.404l81.037,81.611l115.324,0.762l16.11,0.102l-0.103,15.934l-0.769,114.688l81.07,81.643l11.28,11.359
		l-11.469,11.25l-82.128,80.528l-0.768,114.599l-0.109,16.009l-16.028-0.102l-115.412-0.762l-82.16,80.559l-11.438,11.212
		l-11.314-11.399l-81.037-81.611l-115.324-0.763l-16.117-0.108l0.109-15.927l0.77-114.688l-81.07-81.643l-11.287-11.366
		L8260.594,2651.368z M8641.398,3103.771l-74.887-74.416l-74.884,74.416l-4.726,4.695h-6.688h-105.911v105.245v6.646l-4.725,4.695
		l-74.887,74.416l74.887,74.414l4.725,4.695v6.646v105.248h105.911h6.688l4.726,4.695l74.884,74.414l74.887-74.414l4.725-4.695
		h6.688h105.911v-105.248v-6.646l4.726-4.695l74.887-74.414l-74.887-74.416l-4.726-4.695v-6.646v-105.245h-105.911h-6.688
		L8641.398,3103.771z M8577.924,2995.335l81.572,81.059h115.363h16.138v16.036v114.638l81.572,81.059l11.41,11.341l-11.41,11.338
		l-81.572,81.062v114.635v16.036h-16.138h-115.363l-81.572,81.059l-11.412,11.341l-11.41-11.341l-81.571-81.059h-115.364h-16.137
		v-16.036v-114.635l-81.572-81.062l-11.412-11.338l11.412-11.341l81.572-81.059V3092.43v-16.036h16.137h115.364l81.571-81.059
		l11.41-11.338L8577.924,2995.335z M8273.902,3977.373h45.201l-24.476-24.65l75.401-73.934l4.743-4.654l0.046-6.677l0.704-105.268
		l106.022,0.699l6.635,0.038l4.711-4.611l75.436-73.966l74.402,74.929l4.68,4.713l6.726,0.045l105.933,0.699l-0.704,105.356
		l-0.046,6.594l4.647,4.681l74.434,74.961l-21.461,21.043h45.813l9.683-9.492l11.469-11.25l-11.28-11.359l-81.07-81.645
		l0.769-114.688l0.103-15.932l-16.11-0.104l-115.324-0.763l-81.037-81.611l-11.32-11.404l-11.431,11.219l-82.16,80.559
		l-115.413-0.763l-16.035-0.108l-0.103,16.015l-0.767,114.597l-82.128,80.528l-11.476,11.243l11.287,11.365L8273.902,3977.373z
		 M8049.516,3977.373h37.017l-6.945-6.992l-11.321-11.404l-11.433,11.219L8049.516,3977.373z M7261.091,3977.373h45.202
		l-24.476-24.65l75.401-73.934l4.745-4.654l0.046-6.677l0.703-105.268l106.023,0.699l6.635,0.038l4.711-4.611l75.434-73.966
		l74.401,74.929l4.679,4.713l6.727,0.045l105.932,0.699l-0.704,105.356l-0.043,6.594l4.646,4.681l74.436,74.961l-21.463,21.043
		h45.816l9.682-9.492l11.469-11.25l-11.283-11.359l-81.068-81.645l0.767-114.688l0.103-15.932l-16.11-0.104l-115.322-0.763
		l-81.037-81.611l-11.321-11.404l-11.433,11.219l-82.159,80.559l-115.413-0.763l-16.033-0.108l-0.105,16.015l-0.767,114.597
		l-82.128,80.528l-11.476,11.243l11.289,11.365L7261.091,3977.373z M7036.705,3977.373h37.018l-6.945-6.992l-11.322-11.404
		l-11.431,11.219L7036.705,3977.373z M6266.147,3977.373h45.202l-24.476-24.65l75.401-73.934l4.746-4.654l0.043-6.677l0.704-105.268
		l106.023,0.699l6.635,0.038l4.713-4.611l75.434-73.966l74.402,74.929l4.68,4.713l6.726,0.045l105.932,0.699l-0.703,105.356
		l-0.046,6.594l4.647,4.681l74.434,74.961l-21.461,21.043h45.813l9.682-9.492l11.472-11.25l-11.283-11.359l-81.071-81.645
		l0.77-114.688l0.103-15.932l-16.11-0.104l-115.324-0.763l-81.037-81.611l-11.321-11.404l-11.43,11.219l-82.16,80.559
		l-115.413-0.763l-16.035-0.108l-0.103,16.015l-0.767,114.597l-82.127,80.528l-11.476,11.243l11.287,11.365L6266.147,3977.373z
		 M6041.761,3977.373h37.018l-6.945-6.992l-11.321-11.404l-11.431,11.219L6041.761,3977.373z M5271.202,3977.373h45.201
		l-24.476-24.65l75.404-73.934l4.743-4.654l0.046-6.677l0.703-105.268l106.023,0.699l6.635,0.038l4.711-4.611l75.436-73.966
		l74.401,74.929l4.679,4.713l6.727,0.045l105.932,0.699l-0.704,105.356l-0.045,6.594l4.647,4.681l74.434,74.961l-21.461,21.043
		h45.814l9.682-9.492l11.469-11.25l-11.283-11.359l-81.068-81.645l0.77-114.688l0.103-15.932l-16.11-0.104l-115.324-0.763
		l-81.037-81.611l-11.321-11.404l-11.431,11.219l-82.16,80.559l-115.416-0.763l-16.033-0.108l-0.102,16.015l-0.77,114.597
		l-82.127,80.528l-11.477,11.243l11.29,11.365L5271.202,3977.373z M5046.817,3977.373h37.018l-6.947-6.992l-11.321-11.404
		l-11.431,11.219L5046.817,3977.373z M4276.258,3977.373h45.202l-24.476-24.65l75.404-73.934l4.743-4.654l0.045-6.677l0.704-105.268
		l106.023,0.699l6.635,0.038l4.711-4.611l75.436-73.966l74.399,74.929l4.682,4.713l6.724,0.045l105.932,0.699l-0.701,105.356
		l-0.045,6.594l4.647,4.681l74.433,74.961l-21.46,21.043h45.813l9.682-9.492l11.469-11.25l-11.283-11.359l-81.069-81.645
		l0.767-114.688l0.105-15.932l-16.112-0.104l-115.322-0.763l-81.037-81.611l-11.322-11.404l-11.431,11.219l-82.162,80.559
		l-115.413-0.763l-16.033-0.108l-0.105,16.015l-0.767,114.597l-82.127,80.528l-11.476,11.243l11.289,11.365L4276.258,3977.373z
		 M4051.874,3977.373h37.015l-6.945-6.992l-11.321-11.404l-11.431,11.219L4051.874,3977.373z M3281.315,3977.373h45.201
		l-24.476-24.65l75.402-73.934l4.745-4.654l0.046-6.677l0.703-105.268l106.021,0.699l6.635,0.038l4.713-4.611l75.434-73.966
		l74.402,74.929l4.679,4.713l6.726,0.045l105.932,0.699l-0.704,105.356l-0.045,6.594l4.647,4.681l74.434,74.961l-21.461,21.043
		h45.816l9.682-9.492l11.47-11.25l-11.283-11.359l-81.069-81.645l0.767-114.688l0.103-15.932l-16.11-0.104l-115.324-0.763
		l-81.037-81.611l-11.321-11.404l-11.431,11.219l-82.159,80.559l-115.413-0.763l-16.033-0.108l-0.104,16.015l-0.768,114.597
		l-82.127,80.528l-11.476,11.243l11.289,11.365L3281.315,3977.373z M3056.928,3977.373h37.017l-6.945-6.992l-11.322-11.404
		l-11.431,11.219L3056.928,3977.373z M2286.372,3977.373h45.201l-24.476-24.65l75.401-73.934l4.743-4.654l0.046-6.677l0.703-105.268
		l106.023,0.699l6.635,0.038l4.711-4.611l75.436-73.966l74.402,74.929l4.679,4.713l6.726,0.045l105.932,0.699l-0.704,105.356
		l-0.045,6.594l4.647,4.681l74.434,74.961l-21.461,21.043h45.813l9.682-9.492l11.469-11.25l-11.282-11.359l-81.069-81.645
		l0.77-114.688l0.102-15.932l-16.11-0.104l-115.324-0.763l-81.037-81.611l-11.321-11.404l-11.431,11.219l-82.16,80.559
		l-115.415-0.763l-16.033-0.108l-0.102,16.015l-0.767,114.597l-82.128,80.528l-11.476,11.243l11.287,11.365L2286.372,3977.373z
		 M2061.984,3977.373h37.018l-6.945-6.992l-11.321-11.404l-11.433,11.219L2061.984,3977.373z M1291.426,3977.373h45.201
		l-24.476-24.65l75.404-73.934l4.743-4.654l0.046-6.677l0.703-105.268l106.023,0.699l6.635,0.038l4.711-4.611l75.436-73.966
		l74.402,74.929l4.679,4.713l6.724,0.045l105.934,0.699l-0.704,105.356l-0.046,6.594l4.647,4.681l74.434,74.961l-21.461,21.043
		h45.814l9.682-9.492l11.469-11.25l-11.283-11.359l-81.069-81.645l0.767-114.688l0.105-15.932l-16.112-0.104l-115.322-0.763
		l-81.037-81.611l-11.321-11.404l-11.431,11.219l-82.16,80.559l-115.416-0.763l-16.032-0.108l-0.103,16.015l-0.77,114.597
		l-82.128,80.528l-11.476,11.243l11.29,11.365L1291.426,3977.373z M1067.041,3977.373h37.015l-6.945-6.992l-11.321-11.404
		l-11.431,11.219L1067.041,3977.373z M296.482,3977.373h45.201l-24.476-24.65l75.401-73.934l4.745-4.654l0.046-6.677l0.703-105.268
		l106.023,0.699l6.635,0.038l4.711-4.611l75.433-73.966l74.402,74.929l4.679,4.713l6.726,0.045l105.932,0.699l-0.703,105.356
		l-0.043,6.594l4.645,4.681l74.436,74.961l-21.463,21.043h45.816l9.682-9.492l11.469-11.25l-11.283-11.359l-81.069-81.645
		l0.767-114.688l0.103-15.932l-16.11-0.104l-115.322-0.763l-81.037-81.611l-11.321-11.404l-11.433,11.219l-82.16,80.559
		l-115.413-0.763l-16.033-0.108l-0.105,16.015l-0.767,114.597l-82.128,80.528l-11.476,11.243l11.289,11.365L296.482,3977.373z
		 M72.095,3977.373h37.018l-6.945-6.992l-11.321-11.404l-11.431,11.219L72.095,3977.373z M22.77,3369.393v45.361l65.959-65.546
		l74.887,74.416l4.725,4.695h6.685h105.913v105.248v6.643l4.725,4.695l74.887,74.416l-74.887,74.414l-4.725,4.695v6.646v105.248
		H175.026h-6.685l-4.725,4.695l-74.887,74.414l-65.959-65.544v45.361l54.548,54.203l11.41,11.341l11.412-11.341l81.572-81.059
		h115.363h16.135v-16.036V3711.72l81.574-81.062l11.41-11.338l-11.41-11.341l-81.574-81.059v-114.638v-16.033h-16.135H181.713
		l-81.572-81.062l-11.412-11.338l-11.41,11.338L22.77,3369.393z M22.77,2735.93v44.924l67.773-66.456l74.402,74.927l4.679,4.716
		l6.726,0.045l105.932,0.699l-0.704,105.354l-0.046,6.594l4.647,4.684l74.434,74.959l-75.401,73.934l-4.752,4.65l-0.039,6.684
		l-0.704,105.266l-106.02-0.699l-6.642-0.045l-4.707,4.618l-75.433,73.966l-64.146-64.6v45.526l52.522,52.898l11.314,11.397
		l11.438-11.212l82.16-80.559l115.413,0.762l16.028,0.102l0.109-16.009l0.767-114.599l82.128-80.527l11.469-11.25l-11.283-11.359
		l-81.069-81.643l0.767-114.688l0.105-15.932l-16.11-0.104l-115.325-0.762l-81.037-81.611l-11.321-11.404l-11.431,11.219
		L22.77,2735.93z M22.77,2079.588v45.358l65.959-65.544l74.887,74.413l4.725,4.695h6.685h105.913v105.248v6.646l4.725,4.695
		l74.887,74.414l-74.887,74.416l-4.725,4.695v6.646v105.245H175.026h-6.685l-4.725,4.695l-74.887,74.416l-65.959-65.544v45.358
		l54.548,54.205l11.41,11.338l11.412-11.338l81.572-81.062h115.363h16.135v-16.033v-114.638l81.574-81.059l11.41-11.341
		l-11.41-11.339l-81.574-81.062v-114.635v-16.036h-16.135H181.713l-81.572-81.059l-11.412-11.341l-11.41,11.341L22.77,2079.588z
		 M22.77,1446.123v44.924l67.773-66.453l74.402,74.927l4.679,4.713l6.726,0.045l105.932,0.699l-0.704,105.356l-0.046,6.594
		l4.647,4.682l74.434,74.961l-75.401,73.934l-4.752,4.65l-0.039,6.684l-0.704,105.266l-106.02-0.699l-6.642-0.045l-4.707,4.618
		l-75.433,73.966l-64.146-64.6v45.526l52.522,52.895l11.314,11.397l11.438-11.212l82.16-80.559l115.413,0.765l16.028,0.102
		l0.109-16.009l0.767-114.599l82.128-80.527l11.469-11.25l-11.283-11.359l-81.069-81.643l0.767-114.69l0.105-15.932l-16.11-0.102
		l-115.325-0.765l-81.037-81.611l-11.321-11.404l-11.431,11.218L22.77,1446.123z M22.77,789.782v45.361l65.959-65.544l74.887,74.414
		l4.725,4.695h6.685h105.913v105.248v6.643l4.725,4.695l74.887,74.416l-74.887,74.414l-4.725,4.695v6.645v105.248H175.026h-6.685
		l-4.725,4.695l-74.887,74.414l-65.959-65.544v45.36l54.548,54.203l11.41,11.341l11.412-11.341l81.572-81.059h115.363h16.135
		v-16.036v-114.635l81.574-81.059l11.41-11.341l-11.41-11.34l-81.574-81.059V832.672v-16.034h-16.135H181.713l-81.572-81.059
		l-11.412-11.341l-11.41,11.341L22.77,789.782z M22.77,156.319v44.924l67.773-66.456l74.402,74.927l4.679,4.722l6.726,0.038
		l105.932,0.699l-0.704,105.356l-0.046,6.598l4.647,4.677l74.434,74.959l-75.401,73.934l-4.752,4.657l-0.039,6.677l-0.704,105.266
		l-106.02-0.699l-6.642-0.043l-4.707,4.618L86.916,675.14L22.77,610.537v45.526l52.522,52.898l11.314,11.397l11.438-11.212
		l82.16-80.559l115.413,0.763l16.028,0.102l0.109-16.008l0.767-114.597l82.128-80.527l11.469-11.245l-11.283-11.364l-81.069-81.645
		l0.767-114.688l0.105-15.925l-16.11-0.111l-115.325-0.763l-81.037-81.611L90.846,89.569l-11.431,11.212L22.77,156.319z
		 M842.344,22.627h-45.201l63.836,64.286l-75.404,73.934l-4.75,4.657l-0.039,6.677l-0.704,105.266l-106.023-0.699l-6.642-0.038
		l-4.704,4.611l-75.436,73.968l-74.402-74.93l-4.686-4.713l-6.719-0.045l-105.932-0.699l0.704-105.356l0.039-6.594l-4.641-4.681
		l-74.434-74.961l61.887-60.681h-45.816l-50.106,49.13l-11.476,11.25l11.289,11.359l81.069,81.643l-0.767,114.69l-0.112,15.932
		l16.117,0.102l115.324,0.765l81.037,81.612l11.315,11.404l11.437-11.219l82.16-80.559l115.416,0.763l16.026,0.108l0.109-16.015
		l0.77-114.599l82.128-80.525l11.469-11.245l-11.283-11.366L842.344,22.627z M1126.692,22.627h-86.037l31.607,31.409l11.412,11.34
		l11.41-11.34L1126.692,22.627z M1837.288,22.627h-45.201l63.836,64.286l-75.401,73.934l-4.752,4.657l-0.039,6.677l-0.704,105.266
		l-106.023-0.699l-6.64-0.038l-4.706,4.611l-75.433,73.968l-74.402-74.93l-4.686-4.713l-6.719-0.045l-105.932-0.699l0.704-105.356
		l0.039-6.594l-4.643-4.681l-74.434-74.961l61.887-60.681h-45.814l-50.108,49.13l-11.476,11.25l11.29,11.359l81.069,81.643
		l-0.767,114.69l-0.109,15.932l16.117,0.102l115.322,0.765l81.037,81.612l11.317,11.404l11.435-11.219l82.162-80.559l115.413,0.763
		l16.026,0.108l0.112-16.015l0.767-114.599l82.128-80.525l11.469-11.245l-11.283-11.366L1837.288,22.627z M2121.638,22.627h-86.04
		l31.608,31.409l11.412,11.34l11.41-11.34L2121.638,22.627z M2832.234,22.627h-45.201l63.834,64.286l-75.401,73.934l-4.75,4.657
		l-0.039,6.677l-0.704,105.266l-106.023-0.699l-6.642-0.038l-4.707,4.611l-75.433,73.968l-74.402-74.93l-4.686-4.713l-6.719-0.045
		l-105.932-0.699l0.704-105.356l0.039-6.594l-4.641-4.681l-74.434-74.961l61.885-60.681h-45.814l-50.106,49.13l-11.476,11.25
		l11.287,11.359l81.069,81.643l-0.767,114.69l-0.109,15.932l16.117,0.102l115.324,0.765l81.037,81.612l11.315,11.404l11.438-11.219
		l82.159-80.559l115.414,0.763l16.028,0.108l0.11-16.015l0.767-114.599l82.127-80.525l11.469-11.245l-11.282-11.366L2832.234,22.627
		z M3116.582,22.627h-86.04l31.607,31.409l11.413,11.34l11.412-11.34L3116.582,22.627z M3827.177,22.627h-45.201l63.834,64.286
		l-75.402,73.934l-4.75,4.657l-0.039,6.677l-0.704,105.266l-106.023-0.699l-6.642-0.038l-4.704,4.611l-75.436,73.968l-74.402-74.93
		l-4.686-4.713l-6.719-0.045l-105.932-0.699l0.704-105.356l0.039-6.594l-4.641-4.681l-74.434-74.961l61.885-60.681h-45.814
		l-50.106,49.13l-11.476,11.25l11.289,11.359l81.069,81.643l-0.77,114.69l-0.109,15.932l16.117,0.102l115.324,0.765l81.037,81.612
		l11.315,11.404l11.438-11.219l82.16-80.559l115.416,0.763l16.025,0.108l0.11-16.015l0.77-114.599l82.127-80.525l11.47-11.245
		l-11.283-11.366L3827.177,22.627z M4111.525,22.627h-86.04l31.61,31.409l11.41,11.34l11.412-11.34L4111.525,22.627z
		 M4822.121,22.627h-45.201l63.836,64.286l-75.403,73.934l-4.75,4.657l-0.039,6.677l-0.704,105.266l-106.023-0.699l-6.642-0.038
		l-4.704,4.611l-75.436,73.968l-74.402-74.93l-4.684-4.713l-6.72-0.045l-105.934-0.699l0.704-105.356l0.039-6.594l-4.64-4.681
		l-74.434-74.961l61.888-60.681h-45.816l-50.106,49.13l-11.476,11.25l11.289,11.359l81.069,81.643l-0.767,114.69l-0.109,15.932
		l16.117,0.102l115.322,0.765l81.037,81.612l11.315,11.404l11.438-11.219l82.162-80.559l115.414,0.763l16.025,0.108l0.109-16.015
		l0.77-114.599l82.128-80.525l11.469-11.245l-11.283-11.366L4822.121,22.627z M5106.471,22.627h-86.04l31.607,31.409l11.413,11.34
		l11.41-11.34L5106.471,22.627z M5817.064,22.627h-45.201l63.836,64.286l-75.401,73.934l-4.752,4.657l-0.039,6.677l-0.704,105.266
		l-106.021-0.699l-6.642-0.038l-4.707,4.611l-75.433,73.968l-74.402-74.93l-4.686-4.713l-6.72-0.045l-105.932-0.699l0.704-105.356
		l0.039-6.594l-4.641-4.681l-74.436-74.961l61.887-60.681h-45.814l-50.108,49.13l-11.477,11.25l11.29,11.359l81.069,81.643
		l-0.767,114.69l-0.109,15.932l16.117,0.102l115.324,0.765l81.038,81.612l11.314,11.404l11.438-11.219l82.159-80.559l115.414,0.763
		l16.028,0.108l0.109-16.015l0.768-114.599l82.128-80.525l11.469-11.245l-11.283-11.366L5817.064,22.627z M6101.414,22.627h-86.04
		l31.607,31.409l11.413,11.34l11.412-11.34L6101.414,22.627z M6812.01,22.627h-45.202l63.834,64.286l-75.401,73.934l-4.75,4.657
		l-0.038,6.677l-0.704,105.266l-106.022-0.699l-6.643-0.038l-4.704,4.611l-75.436,73.968l-74.401-74.93l-4.687-4.713l-6.72-0.045
		l-105.932-0.699l0.704-105.356l0.038-6.594l-4.64-4.681l-74.434-74.961l61.885-60.681h-45.813l-50.106,49.13l-11.476,11.25
		l11.287,11.359l81.071,81.643l-0.77,114.69l-0.109,15.932l16.117,0.102l115.325,0.765l81.037,81.612l11.314,11.404l11.438-11.219
		l82.16-80.559l115.413,0.763l16.028,0.108l0.109-16.015l0.767-114.599l82.128-80.525l11.472-11.245l-11.283-11.366L6812.01,22.627z
		 M7096.358,22.627h-86.04l31.61,31.409l11.41,11.34l11.413-11.34L7096.358,22.627z M7806.953,22.627h-45.201l63.836,64.286
		l-75.404,73.934l-4.75,4.657l-0.039,6.677l-0.704,105.266l-106.023-0.699l-6.642-0.038l-4.704,4.611l-75.436,73.968l-74.402-74.93
		l-4.686-4.713l-6.717-0.045l-105.934-0.699l0.704-105.356l0.039-6.594l-4.64-4.681l-74.434-74.961l61.888-60.681h-45.816
		l-50.106,49.13l-11.476,11.25l11.289,11.359l81.069,81.643l-0.767,114.69l-0.112,15.932l16.12,0.102l115.322,0.765l81.037,81.612
		l11.314,11.404l11.438-11.219l82.159-80.559l115.416,0.763l16.025,0.108l0.11-16.015l0.77-114.599l82.128-80.525l11.469-11.245
		l-11.283-11.366L7806.953,22.627z M8109.169,22.627h-86.04l31.607,31.409l11.413,11.34l11.412-11.34L8109.169,22.627z
		 M8819.765,22.627h-45.201l63.834,64.286l-75.401,73.934l-4.75,4.657l-0.038,6.677l-0.704,105.266l-106.022-0.699l-6.643-0.038
		l-4.706,4.611l-75.434,73.968l-74.401-74.93l-4.687-4.713l-6.72-0.045l-105.932-0.699l0.704-105.356l0.038-6.594l-4.641-4.681
		l-74.434-74.961l61.886-60.681H8310.7l-50.106,49.13l-11.476,11.25l11.287,11.359l81.07,81.643l-0.77,114.69l-0.109,15.932
		l16.117,0.102l115.324,0.765l81.037,81.612l11.314,11.404l11.438-11.219l82.16-80.559l115.412,0.763l16.028,0.108l0.109-16.015
		l0.768-114.599l82.128-80.525l11.469-11.245l-11.28-11.366L8819.765,22.627z M131.749,22.627l-31.607,31.409l-11.412,11.34
		l-11.41-11.34l-31.61-31.409H131.749z"/>
</g>
</svg>
