<svg width="100" height="100" xmlns="http://www.w3.org/2000/svg">
  <defs>
    <pattern id="islamic-pattern" x="0" y="0" width="50" height="50" patternUnits="userSpaceOnUse">
      <!-- Star pattern -->
      <path d="M25 5 L30 20 L45 20 L35 30 L40 45 L25 35 L10 45 L15 30 L5 20 L20 20 Z" 
            fill="rgba(251, 146, 60, 0.1)" stroke="rgba(251, 146, 60, 0.2)" stroke-width="0.5"/>
      
      <!-- Geometric shapes -->
      <circle cx="12" cy="12" r="3" fill="rgba(251, 146, 60, 0.08)"/>
      <circle cx="38" cy="12" r="3" fill="rgba(251, 146, 60, 0.08)"/>
      <circle cx="12" cy="38" r="3" fill="rgba(251, 146, 60, 0.08)"/>
      <circle cx="38" cy="38" r="3" fill="rgba(251, 146, 60, 0.08)"/>
      
      <!-- Diamond pattern -->
      <path d="M25 8 L32 15 L25 22 L18 15 Z" fill="rgba(251, 146, 60, 0.05)"/>
      <path d="M25 28 L32 35 L25 42 L18 35 Z" fill="rgba(251, 146, 60, 0.05)"/>
      <path d="M8 25 L15 32 L22 25 L15 18 Z" fill="rgba(251, 146, 60, 0.05)"/>
      <path d="M42 25 L35 32 L28 25 L35 18 Z" fill="rgba(251, 146, 60, 0.05)"/>
      
      <!-- Small decorative elements -->
      <rect x="20" y="20" width="10" height="10" fill="none" stroke="rgba(251, 146, 60, 0.1)" stroke-width="0.5"/>
      <circle cx="25" cy="25" r="2" fill="rgba(251, 146, 60, 0.1)"/>
    </pattern>
  </defs>
  
  <rect width="100" height="100" fill="url(#islamic-pattern)"/>
</svg> 